<svg viewBox="0 0 2160 2160" fill="none" xmlns="http://www.w3.org/2000/svg">
<circle cx="1080" cy="1080" r="900" fill="#ECEFF4"/>
<circle cx="1080" cy="1080" r="750" fill="#5E81AC"/>
<circle cx="1080" cy="1080" r="750" fill="#5E81AC"/>
<circle cx="1180" cy="980" r="650" fill="#ECEFF4" fill-opacity="0.69"/>
<circle cx="1230" cy="930" r="600" fill="#ECEFF4"/>
<path d="M1276 569L1561.32 776.295L1452.34 1111.71H1099.66L990.683 776.295L1276 569Z" fill="#5E81AC" fill-opacity="0.15"/>
<path d="M1276 1286.64L1184.48 1004.97L1182.23 998.058H1174.97L878.801 998.058L1118.41 823.975L1124.28 819.704L1122.04 812.795L1030.52 531.123L1270.12 705.205L1276 709.476L1281.88 705.205L1521.48 531.123L1429.96 812.795L1427.72 819.704L1433.59 823.975L1673.2 998.058H1377.03H1369.77L1367.52 1004.97L1276 1286.64Z" stroke="#5E81AC" stroke-width="20"/>
<path d="M1002.44 780.115L1276 581.361L1549.56 780.115L1445.07 1101.71H1106.93L1002.44 780.115Z" stroke="#5E81AC" stroke-width="20"/>
<path d="M1145.1 826.467L1276 731.361L1406.9 826.467L1356.9 980.353H1195.1L1145.1 826.467Z" fill="#ECEFF4" stroke="#5E81AC" stroke-width="20"/>
<circle cx="1276" cy="869" r="50" fill="#5E81AC"/>
<path d="M634.687 1336.69L852.09 1293.21L808.61 1510.61L591.207 1554.09L634.687 1336.69Z" fill="#ECEFF4" stroke="#5E81AC" stroke-width="20"/>
<path d="M506.244 982.373L665.029 1036.09L554.375 1162L395.589 1108.28L506.244 982.373Z" fill="#ECEFF4" stroke="#5E81AC" stroke-width="20"/>
<path d="M975.373 1606.24L1101.28 1495.59L1155 1654.37L1029.09 1765.03L975.373 1606.24Z" fill="#ECEFF4" stroke="#5E81AC" stroke-width="20"/>
</svg>
