<svg id="visual" viewBox="0 0 900 675" width="900" height="675" xmlns="http://www.w3.org/2000/svg" xmlns:xlink="http://www.w3.org/1999/xlink" version="1.1"><g stroke-width="1" stroke-linejoin="bevel"><path d="M464 336L448 380L489 356Z" fill="#262626" stroke="#262626"></path><path d="M448 380L492 407L489 356Z" fill="#2e2e2e" stroke="#2e2e2e"></path><path d="M464 336L411 348L448 380Z" fill="#282828" stroke="#282828"></path><path d="M492 407L527 368L489 356Z" fill="#2d2d2d" stroke="#2d2d2d"></path><path d="M489 356L490 288L464 336Z" fill="#272727" stroke="#272727"></path><path d="M441 292L432 303L464 336Z" fill="#2e2e2e" stroke="#2e2e2e"></path><path d="M464 336L432 303L411 348Z" fill="#262626" stroke="#262626"></path><path d="M490 288L441 292L464 336Z" fill="#2b2b2b" stroke="#2b2b2b"></path><path d="M549 318L490 288L489 356Z" fill="#2e2e2e" stroke="#2e2e2e"></path><path d="M490 288L487 283L441 292Z" fill="#262626" stroke="#262626"></path><path d="M358 384L388 394L411 348Z" fill="#262626" stroke="#262626"></path><path d="M411 348L388 394L448 380Z" fill="#2b2b2b" stroke="#2b2b2b"></path><path d="M448 380L476 453L492 407Z" fill="#262626" stroke="#262626"></path><path d="M476 453L523 421L492 407Z" fill="#2e2e2e" stroke="#2e2e2e"></path><path d="M492 407L523 421L527 368Z" fill="#282828" stroke="#282828"></path><path d="M363 322L384 327L386 258Z" fill="#292929" stroke="#292929"></path><path d="M432 303L384 327L411 348Z" fill="#2e2e2e" stroke="#2e2e2e"></path><path d="M523 421L549 392L527 368Z" fill="#2f2f2f" stroke="#2f2f2f"></path><path d="M527 368L549 318L489 356Z" fill="#2b2b2b" stroke="#2b2b2b"></path><path d="M389 445L476 453L448 380Z" fill="#282828" stroke="#282828"></path><path d="M549 392L558 362L527 368Z" fill="#272727" stroke="#272727"></path><path d="M490 288L561 241L487 283Z" fill="#262626" stroke="#262626"></path><path d="M558 362L549 318L527 368Z" fill="#303030" stroke="#303030"></path><path d="M386 258L384 327L432 303Z" fill="#282828" stroke="#282828"></path><path d="M384 327L358 384L411 348Z" fill="#2c2c2c" stroke="#2c2c2c"></path><path d="M348 339L358 384L384 327Z" fill="#2b2b2b" stroke="#2b2b2b"></path><path d="M388 394L389 445L448 380Z" fill="#2c2c2c" stroke="#2c2c2c"></path><path d="M503 486L544 439L523 421Z" fill="#2d2d2d" stroke="#2d2d2d"></path><path d="M523 421L544 439L549 392Z" fill="#2e2e2e" stroke="#2e2e2e"></path><path d="M599 364L589 349L558 362Z" fill="#2c2c2c" stroke="#2c2c2c"></path><path d="M343 423L389 445L388 394Z" fill="#2e2e2e" stroke="#2e2e2e"></path><path d="M363 322L348 339L384 327Z" fill="#282828" stroke="#282828"></path><path d="M589 408L558 362L549 392Z" fill="#262626" stroke="#262626"></path><path d="M558 362L589 349L549 318Z" fill="#2b2b2b" stroke="#2b2b2b"></path><path d="M389 211L386 258L441 292Z" fill="#2e2e2e" stroke="#2e2e2e"></path><path d="M441 292L386 258L432 303Z" fill="#2d2d2d" stroke="#2d2d2d"></path><path d="M363 322L324 290L348 339Z" fill="#2a2a2a" stroke="#2a2a2a"></path><path d="M487 495L503 486L476 453Z" fill="#282828" stroke="#282828"></path><path d="M476 453L503 486L523 421Z" fill="#2f2f2f" stroke="#2f2f2f"></path><path d="M606 410L589 408L643 460Z" fill="#2c2c2c" stroke="#2c2c2c"></path><path d="M544 439L589 408L549 392Z" fill="#292929" stroke="#292929"></path><path d="M589 408L599 364L558 362Z" fill="#292929" stroke="#292929"></path><path d="M401 489L487 495L476 453Z" fill="#2f2f2f" stroke="#2f2f2f"></path><path d="M328 419L343 423L358 384Z" fill="#292929" stroke="#292929"></path><path d="M358 384L343 423L388 394Z" fill="#303030" stroke="#303030"></path><path d="M389 445L401 489L476 453Z" fill="#272727" stroke="#272727"></path><path d="M397 494L401 489L388 499Z" fill="#2b2b2b" stroke="#2b2b2b"></path><path d="M589 408L607 383L599 364Z" fill="#303030" stroke="#303030"></path><path d="M269 384L328 419L358 384Z" fill="#303030" stroke="#303030"></path><path d="M388 499L401 489L389 445Z" fill="#2f2f2f" stroke="#2f2f2f"></path><path d="M388 499L389 445L357 516Z" fill="#2a2a2a" stroke="#2a2a2a"></path><path d="M401 489L452 535L487 495Z" fill="#2f2f2f" stroke="#2f2f2f"></path><path d="M643 460L589 408L544 439Z" fill="#2d2d2d" stroke="#2d2d2d"></path><path d="M589 408L606 410L607 383Z" fill="#2a2a2a" stroke="#2a2a2a"></path><path d="M635 244L561 241L549 318Z" fill="#303030" stroke="#303030"></path><path d="M549 318L561 241L490 288Z" fill="#272727" stroke="#272727"></path><path d="M389 211L362 228L386 258Z" fill="#2f2f2f" stroke="#2f2f2f"></path><path d="M577 223L561 241L635 244Z" fill="#303030" stroke="#303030"></path><path d="M549 318L589 349L635 244Z" fill="#2c2c2c" stroke="#2c2c2c"></path><path d="M386 258L324 290L363 322Z" fill="#303030" stroke="#303030"></path><path d="M348 339L299 332L358 384Z" fill="#2a2a2a" stroke="#2a2a2a"></path><path d="M382 517L388 499L357 516Z" fill="#2f2f2f" stroke="#2f2f2f"></path><path d="M452 535L498 524L487 495Z" fill="#272727" stroke="#272727"></path><path d="M487 495L498 524L503 486Z" fill="#303030" stroke="#303030"></path><path d="M503 486L538 512L544 439Z" fill="#2c2c2c" stroke="#2c2c2c"></path><path d="M452 535L401 489L397 494Z" fill="#2c2c2c" stroke="#2c2c2c"></path><path d="M498 524L538 512L503 486Z" fill="#303030" stroke="#303030"></path><path d="M389 211L441 292L443 182Z" fill="#2d2d2d" stroke="#2d2d2d"></path><path d="M386 258L362 228L324 290Z" fill="#262626" stroke="#262626"></path><path d="M443 182L441 292L487 283Z" fill="#2a2a2a" stroke="#2a2a2a"></path><path d="M324 290L299 332L348 339Z" fill="#272727" stroke="#272727"></path><path d="M382 517L452 535L397 494Z" fill="#2b2b2b" stroke="#2b2b2b"></path><path d="M561 241L493 188L487 283Z" fill="#2b2b2b" stroke="#2b2b2b"></path><path d="M357 516L389 445L343 423Z" fill="#282828" stroke="#282828"></path><path d="M388 499L382 517L397 494Z" fill="#2e2e2e" stroke="#2e2e2e"></path><path d="M649 339L589 349L599 364Z" fill="#2b2b2b" stroke="#2b2b2b"></path><path d="M561 241L527 179L493 188Z" fill="#262626" stroke="#262626"></path><path d="M500 144L483 183L493 188Z" fill="#272727" stroke="#272727"></path><path d="M493 188L483 183L487 283Z" fill="#262626" stroke="#262626"></path><path d="M389 211L361 214L362 228Z" fill="#2b2b2b" stroke="#2b2b2b"></path><path d="M311 255L300 278L324 290Z" fill="#2f2f2f" stroke="#2f2f2f"></path><path d="M324 290L300 278L299 332Z" fill="#292929" stroke="#292929"></path><path d="M362 191L361 214L389 211Z" fill="#282828" stroke="#282828"></path><path d="M483 183L443 182L487 283Z" fill="#282828" stroke="#282828"></path><path d="M498 524L535 529L538 512Z" fill="#2d2d2d" stroke="#2d2d2d"></path><path d="M538 512L557 527L544 439Z" fill="#272727" stroke="#272727"></path><path d="M518 553L535 529L498 524Z" fill="#262626" stroke="#262626"></path><path d="M311 255L324 290L362 228Z" fill="#262626" stroke="#262626"></path><path d="M659 375L649 339L607 383Z" fill="#2f2f2f" stroke="#2f2f2f"></path><path d="M607 383L649 339L599 364Z" fill="#2f2f2f" stroke="#2f2f2f"></path><path d="M659 375L607 383L606 410Z" fill="#2c2c2c" stroke="#2c2c2c"></path><path d="M307 227L311 255L362 228Z" fill="#262626" stroke="#262626"></path><path d="M296 482L343 423L328 419Z" fill="#2d2d2d" stroke="#2d2d2d"></path><path d="M296 482L357 516L343 423Z" fill="#282828" stroke="#282828"></path><path d="M382 517L411 564L452 535Z" fill="#2b2b2b" stroke="#2b2b2b"></path><path d="M535 529L557 527L538 512Z" fill="#2f2f2f" stroke="#2f2f2f"></path><path d="M269 384L358 384L299 332Z" fill="#282828" stroke="#282828"></path><path d="M269 384L283 418L328 419Z" fill="#2d2d2d" stroke="#2d2d2d"></path><path d="M577 223L527 179L561 241Z" fill="#2f2f2f" stroke="#2f2f2f"></path><path d="M483 183L474 139L443 182Z" fill="#303030" stroke="#303030"></path><path d="M684 426L659 375L606 410Z" fill="#262626" stroke="#262626"></path><path d="M234 390L269 384L226 324Z" fill="#292929" stroke="#292929"></path><path d="M362 159L362 191L389 211Z" fill="#2d2d2d" stroke="#2d2d2d"></path><path d="M361 214L307 227L362 228Z" fill="#292929" stroke="#292929"></path><path d="M461 573L498 524L452 535Z" fill="#2a2a2a" stroke="#2a2a2a"></path><path d="M461 573L518 553L498 524Z" fill="#282828" stroke="#282828"></path><path d="M535 529L529 564L557 527Z" fill="#292929" stroke="#292929"></path><path d="M557 527L643 460L544 439Z" fill="#2d2d2d" stroke="#2d2d2d"></path><path d="M591 192L583 192L577 223Z" fill="#2b2b2b" stroke="#2b2b2b"></path><path d="M577 223L583 192L527 179Z" fill="#2f2f2f" stroke="#2f2f2f"></path><path d="M313 192L307 227L361 214Z" fill="#303030" stroke="#303030"></path><path d="M311 255L292 243L300 278Z" fill="#282828" stroke="#282828"></path><path d="M300 278L226 324L299 332Z" fill="#262626" stroke="#262626"></path><path d="M667 253L635 244L649 339Z" fill="#282828" stroke="#282828"></path><path d="M649 339L635 244L589 349Z" fill="#2f2f2f" stroke="#2f2f2f"></path><path d="M248 442L296 482L283 418Z" fill="#282828" stroke="#282828"></path><path d="M283 418L296 482L328 419Z" fill="#2d2d2d" stroke="#2d2d2d"></path><path d="M307 227L292 243L311 255Z" fill="#303030" stroke="#303030"></path><path d="M677 350L649 339L659 375Z" fill="#262626" stroke="#262626"></path><path d="M677 350L673 340L649 339Z" fill="#2c2c2c" stroke="#2c2c2c"></path><path d="M365 558L382 517L357 516Z" fill="#292929" stroke="#292929"></path><path d="M365 558L411 564L382 517Z" fill="#2f2f2f" stroke="#2f2f2f"></path><path d="M631 226L591 192L577 223Z" fill="#2b2b2b" stroke="#2b2b2b"></path><path d="M551 142L500 144L527 179Z" fill="#303030" stroke="#303030"></path><path d="M411 564L461 573L452 535Z" fill="#292929" stroke="#292929"></path><path d="M718 383L677 350L659 375Z" fill="#2d2d2d" stroke="#2d2d2d"></path><path d="M667 253L631 226L635 244Z" fill="#2d2d2d" stroke="#2d2d2d"></path><path d="M514 583L529 564L518 553Z" fill="#2f2f2f" stroke="#2f2f2f"></path><path d="M518 553L529 564L535 529Z" fill="#262626" stroke="#262626"></path><path d="M557 527L635 519L643 460Z" fill="#292929" stroke="#292929"></path><path d="M296 482L319 517L357 516Z" fill="#2b2b2b" stroke="#2b2b2b"></path><path d="M667 253L649 339L692 302Z" fill="#272727" stroke="#272727"></path><path d="M635 244L631 226L577 223Z" fill="#282828" stroke="#282828"></path><path d="M584 175L527 179L583 192Z" fill="#2c2c2c" stroke="#2c2c2c"></path><path d="M527 179L500 144L493 188Z" fill="#2b2b2b" stroke="#2b2b2b"></path><path d="M362 159L345 173L362 191Z" fill="#292929" stroke="#292929"></path><path d="M307 227L275 249L292 243Z" fill="#282828" stroke="#282828"></path><path d="M292 243L275 249L300 278Z" fill="#292929" stroke="#292929"></path><path d="M319 517L365 558L357 516Z" fill="#292929" stroke="#292929"></path><path d="M440 622L493 606L461 573Z" fill="#262626" stroke="#262626"></path><path d="M618 165L584 175L591 192Z" fill="#2f2f2f" stroke="#2f2f2f"></path><path d="M591 192L584 175L583 192Z" fill="#292929" stroke="#292929"></path><path d="M529 564L575 553L557 527Z" fill="#272727" stroke="#272727"></path><path d="M500 144L474 139L483 183Z" fill="#2f2f2f" stroke="#2f2f2f"></path><path d="M362 191L313 192L361 214Z" fill="#292929" stroke="#292929"></path><path d="M307 227L313 192L275 249Z" fill="#2e2e2e" stroke="#2e2e2e"></path><path d="M362 159L389 211L443 182Z" fill="#2a2a2a" stroke="#2a2a2a"></path><path d="M474 139L362 159L443 182Z" fill="#2e2e2e" stroke="#2e2e2e"></path><path d="M286 104L313 192L345 173Z" fill="#2e2e2e" stroke="#2e2e2e"></path><path d="M345 173L313 192L362 191Z" fill="#2e2e2e" stroke="#2e2e2e"></path><path d="M461 573L514 583L518 553Z" fill="#272727" stroke="#272727"></path><path d="M529 564L537 606L575 553Z" fill="#2e2e2e" stroke="#2e2e2e"></path><path d="M493 606L514 583L461 573Z" fill="#292929" stroke="#292929"></path><path d="M697 423L684 426L719 445Z" fill="#2b2b2b" stroke="#2b2b2b"></path><path d="M643 460L684 426L606 410Z" fill="#282828" stroke="#282828"></path><path d="M692 302L649 339L673 340Z" fill="#303030" stroke="#303030"></path><path d="M631 226L618 165L591 192Z" fill="#282828" stroke="#282828"></path><path d="M234 390L248 442L283 418Z" fill="#303030" stroke="#303030"></path><path d="M296 482L306 535L319 517Z" fill="#272727" stroke="#272727"></path><path d="M234 390L283 418L269 384Z" fill="#2f2f2f" stroke="#2f2f2f"></path><path d="M226 324L269 384L299 332Z" fill="#272727" stroke="#272727"></path><path d="M500 144L476 129L474 139Z" fill="#2f2f2f" stroke="#2f2f2f"></path><path d="M474 139L360 92L362 159Z" fill="#282828" stroke="#282828"></path><path d="M475 87L476 129L540 93Z" fill="#2c2c2c" stroke="#2c2c2c"></path><path d="M575 553L635 519L557 527Z" fill="#272727" stroke="#272727"></path><path d="M718 383L692 302L677 350Z" fill="#262626" stroke="#262626"></path><path d="M677 350L692 302L673 340Z" fill="#2c2c2c" stroke="#2c2c2c"></path><path d="M228 510L306 535L296 482Z" fill="#262626" stroke="#262626"></path><path d="M319 517L306 535L365 558Z" fill="#2c2c2c" stroke="#2c2c2c"></path><path d="M609 125L551 142L584 175Z" fill="#2c2c2c" stroke="#2c2c2c"></path><path d="M584 175L551 142L527 179Z" fill="#2f2f2f" stroke="#2f2f2f"></path><path d="M195 390L245 449L248 442Z" fill="#2c2c2c" stroke="#2c2c2c"></path><path d="M248 442L245 449L296 482Z" fill="#303030" stroke="#303030"></path><path d="M678 496L684 426L643 460Z" fill="#272727" stroke="#272727"></path><path d="M684 426L697 423L659 375Z" fill="#282828" stroke="#282828"></path><path d="M665 545L649 516L635 519Z" fill="#2f2f2f" stroke="#2f2f2f"></path><path d="M635 519L649 516L643 460Z" fill="#292929" stroke="#292929"></path><path d="M222 273L226 324L300 278Z" fill="#2f2f2f" stroke="#2f2f2f"></path><path d="M696 261L693 271L722 259Z" fill="#2c2c2c" stroke="#2c2c2c"></path><path d="M692 302L693 271L667 253Z" fill="#262626" stroke="#262626"></path><path d="M631 153L618 165L631 226Z" fill="#262626" stroke="#262626"></path><path d="M440 622L461 573L411 564Z" fill="#2c2c2c" stroke="#2c2c2c"></path><path d="M514 583L537 606L529 564Z" fill="#262626" stroke="#262626"></path><path d="M650 600L665 545L635 519Z" fill="#272727" stroke="#272727"></path><path d="M619 160L618 165L631 153Z" fill="#292929" stroke="#292929"></path><path d="M334 582L394 600L365 558Z" fill="#303030" stroke="#303030"></path><path d="M365 558L394 600L411 564Z" fill="#262626" stroke="#262626"></path><path d="M722 259L693 271L692 302Z" fill="#2a2a2a" stroke="#2a2a2a"></path><path d="M693 271L696 261L667 253Z" fill="#2c2c2c" stroke="#2c2c2c"></path><path d="M649 516L678 496L643 460Z" fill="#2a2a2a" stroke="#2a2a2a"></path><path d="M631 153L631 226L693 204Z" fill="#2a2a2a" stroke="#2a2a2a"></path><path d="M618 165L619 160L584 175Z" fill="#2e2e2e" stroke="#2e2e2e"></path><path d="M719 445L718 383L697 423Z" fill="#2b2b2b" stroke="#2b2b2b"></path><path d="M697 423L718 383L659 375Z" fill="#282828" stroke="#282828"></path><path d="M493 606L537 606L514 583Z" fill="#2d2d2d" stroke="#2d2d2d"></path><path d="M649 516L679 510L678 496Z" fill="#2f2f2f" stroke="#2f2f2f"></path><path d="M298 601L334 582L306 535Z" fill="#2f2f2f" stroke="#2f2f2f"></path><path d="M306 535L334 582L365 558Z" fill="#2a2a2a" stroke="#2a2a2a"></path><path d="M210 218L222 273L275 249Z" fill="#303030" stroke="#303030"></path><path d="M275 249L222 273L300 278Z" fill="#303030" stroke="#303030"></path><path d="M665 545L679 510L649 516Z" fill="#292929" stroke="#292929"></path><path d="M701 489L719 445L684 426Z" fill="#282828" stroke="#282828"></path><path d="M402 675L440 622L394 600Z" fill="#292929" stroke="#292929"></path><path d="M394 600L440 622L411 564Z" fill="#292929" stroke="#292929"></path><path d="M551 674L583 651L537 606Z" fill="#2b2b2b" stroke="#2b2b2b"></path><path d="M222 273L207 305L226 324Z" fill="#2f2f2f" stroke="#2f2f2f"></path><path d="M190 361L195 390L234 390Z" fill="#2c2c2c" stroke="#2c2c2c"></path><path d="M234 390L195 390L248 442Z" fill="#2d2d2d" stroke="#2d2d2d"></path><path d="M693 204L631 226L667 253Z" fill="#292929" stroke="#292929"></path><path d="M619 160L609 125L584 175Z" fill="#2f2f2f" stroke="#2f2f2f"></path><path d="M540 93L476 129L500 144Z" fill="#303030" stroke="#303030"></path><path d="M701 489L684 426L678 496Z" fill="#303030" stroke="#303030"></path><path d="M679 510L701 489L678 496Z" fill="#272727" stroke="#272727"></path><path d="M185 239L207 277L222 273Z" fill="#262626" stroke="#262626"></path><path d="M222 273L207 277L207 305Z" fill="#303030" stroke="#303030"></path><path d="M190 361L226 324L187 334Z" fill="#2e2e2e" stroke="#2e2e2e"></path><path d="M190 361L234 390L226 324Z" fill="#292929" stroke="#292929"></path><path d="M245 449L228 510L296 482Z" fill="#2e2e2e" stroke="#2e2e2e"></path><path d="M650 600L635 519L575 553Z" fill="#2a2a2a" stroke="#2a2a2a"></path><path d="M706 573L733 484L701 489Z" fill="#2f2f2f" stroke="#2f2f2f"></path><path d="M540 93L500 144L551 142Z" fill="#2a2a2a" stroke="#2a2a2a"></path><path d="M476 129L360 92L474 139Z" fill="#2b2b2b" stroke="#2b2b2b"></path><path d="M187 334L226 324L207 305Z" fill="#303030" stroke="#303030"></path><path d="M631 153L609 125L619 160Z" fill="#2b2b2b" stroke="#2b2b2b"></path><path d="M746 260L722 259L692 302Z" fill="#2d2d2d" stroke="#2d2d2d"></path><path d="M706 214L693 204L667 253Z" fill="#2c2c2c" stroke="#2c2c2c"></path><path d="M631 153L636 106L609 125Z" fill="#2c2c2c" stroke="#2c2c2c"></path><path d="M746 260L692 302L766 369Z" fill="#2f2f2f" stroke="#2f2f2f"></path><path d="M706 214L667 253L696 261Z" fill="#292929" stroke="#292929"></path><path d="M609 125L540 93L551 142Z" fill="#2e2e2e" stroke="#2e2e2e"></path><path d="M178 252L187 334L207 305Z" fill="#272727" stroke="#272727"></path><path d="M176 488L228 510L245 449Z" fill="#2b2b2b" stroke="#2b2b2b"></path><path d="M733 484L732 447L719 445Z" fill="#272727" stroke="#272727"></path><path d="M719 445L732 447L718 383Z" fill="#272727" stroke="#272727"></path><path d="M733 484L719 445L701 489Z" fill="#262626" stroke="#262626"></path><path d="M722 259L706 214L696 261Z" fill="#2d2d2d" stroke="#2d2d2d"></path><path d="M693 204L657 124L631 153Z" fill="#262626" stroke="#262626"></path><path d="M405 58L360 92L476 129Z" fill="#2b2b2b" stroke="#2b2b2b"></path><path d="M362 159L341 88L345 173Z" fill="#2a2a2a" stroke="#2a2a2a"></path><path d="M313 192L210 218L275 249Z" fill="#2f2f2f" stroke="#2f2f2f"></path><path d="M194 195L210 218L313 192Z" fill="#2b2b2b" stroke="#2b2b2b"></path><path d="M207 277L178 252L207 305Z" fill="#2c2c2c" stroke="#2c2c2c"></path><path d="M242 598L298 601L306 535Z" fill="#2a2a2a" stroke="#2a2a2a"></path><path d="M334 582L348 647L394 600Z" fill="#282828" stroke="#282828"></path><path d="M706 573L701 489L679 510Z" fill="#2d2d2d" stroke="#2d2d2d"></path><path d="M766 369L692 302L718 383Z" fill="#2e2e2e" stroke="#2e2e2e"></path><path d="M722 259L736 230L706 214Z" fill="#272727" stroke="#272727"></path><path d="M766 369L718 383L765 440Z" fill="#2f2f2f" stroke="#2f2f2f"></path><path d="M190 361L169 410L195 390Z" fill="#262626" stroke="#262626"></path><path d="M195 390L169 410L245 449Z" fill="#2f2f2f" stroke="#2f2f2f"></path><path d="M139 345L169 410L190 361Z" fill="#2f2f2f" stroke="#2f2f2f"></path><path d="M139 345L190 361L187 334Z" fill="#2d2d2d" stroke="#2d2d2d"></path><path d="M356 75L341 88L360 92Z" fill="#282828" stroke="#282828"></path><path d="M360 92L341 88L362 159Z" fill="#303030" stroke="#303030"></path><path d="M746 260L736 230L722 259Z" fill="#282828" stroke="#282828"></path><path d="M664 103L657 124L738 134Z" fill="#2b2b2b" stroke="#2b2b2b"></path><path d="M765 440L718 383L732 447Z" fill="#2b2b2b" stroke="#2b2b2b"></path><path d="M583 651L575 553L537 606Z" fill="#2e2e2e" stroke="#2e2e2e"></path><path d="M583 651L650 600L575 553Z" fill="#303030" stroke="#303030"></path><path d="M665 545L706 573L679 510Z" fill="#292929" stroke="#292929"></path><path d="M173 204L185 239L210 218Z" fill="#2c2c2c" stroke="#2c2c2c"></path><path d="M210 218L185 239L222 273Z" fill="#2b2b2b" stroke="#2b2b2b"></path><path d="M657 124L693 204L738 134Z" fill="#272727" stroke="#272727"></path><path d="M609 125L620 65L540 93Z" fill="#272727" stroke="#272727"></path><path d="M650 600L680 578L665 545Z" fill="#292929" stroke="#292929"></path><path d="M405 58L356 75L360 92Z" fill="#303030" stroke="#303030"></path><path d="M405 58L476 129L475 87Z" fill="#282828" stroke="#282828"></path><path d="M185 239L178 252L207 277Z" fill="#2c2c2c" stroke="#2c2c2c"></path><path d="M657 124L636 106L631 153Z" fill="#282828" stroke="#282828"></path><path d="M298 601L348 647L334 582Z" fill="#2a2a2a" stroke="#2a2a2a"></path><path d="M528 675L537 606L493 606Z" fill="#272727" stroke="#272727"></path><path d="M457 52L405 58L475 87Z" fill="#303030" stroke="#303030"></path><path d="M457 52L475 87L497 32Z" fill="#2a2a2a" stroke="#2a2a2a"></path><path d="M497 32L475 87L540 93Z" fill="#292929" stroke="#292929"></path><path d="M778 436L765 440L787 449Z" fill="#2e2e2e" stroke="#2e2e2e"></path><path d="M733 484L765 440L732 447Z" fill="#262626" stroke="#262626"></path><path d="M300 85L286 104L341 88Z" fill="#282828" stroke="#282828"></path><path d="M341 88L286 104L345 173Z" fill="#282828" stroke="#282828"></path><path d="M476 675L493 606L440 622Z" fill="#262626" stroke="#262626"></path><path d="M699 607L706 573L680 578Z" fill="#292929" stroke="#292929"></path><path d="M402 675L476 675L440 622Z" fill="#282828" stroke="#282828"></path><path d="M169 410L176 488L245 449Z" fill="#2b2b2b" stroke="#2b2b2b"></path><path d="M228 510L242 598L306 535Z" fill="#262626" stroke="#262626"></path><path d="M176 488L190 519L228 510Z" fill="#282828" stroke="#282828"></path><path d="M298 601L282 643L348 647Z" fill="#2f2f2f" stroke="#2f2f2f"></path><path d="M195 132L194 195L313 192Z" fill="#282828" stroke="#282828"></path><path d="M185 239L173 204L178 252Z" fill="#272727" stroke="#272727"></path><path d="M348 647L402 675L394 600Z" fill="#2b2b2b" stroke="#2b2b2b"></path><path d="M476 675L528 675L493 606Z" fill="#272727" stroke="#272727"></path><path d="M307 49L300 85L341 88Z" fill="#282828" stroke="#282828"></path><path d="M168 189L173 204L194 195Z" fill="#2c2c2c" stroke="#2c2c2c"></path><path d="M307 49L341 88L356 75Z" fill="#2f2f2f" stroke="#2f2f2f"></path><path d="M699 607L680 578L650 600Z" fill="#272727" stroke="#272727"></path><path d="M680 578L706 573L665 545Z" fill="#303030" stroke="#303030"></path><path d="M787 449L765 440L733 484Z" fill="#2c2c2c" stroke="#2c2c2c"></path><path d="M765 440L778 436L766 369Z" fill="#292929" stroke="#292929"></path><path d="M457 52L402 43L405 58Z" fill="#272727" stroke="#272727"></path><path d="M405 58L402 43L356 75Z" fill="#2f2f2f" stroke="#2f2f2f"></path><path d="M528 675L551 674L537 606Z" fill="#2a2a2a" stroke="#2a2a2a"></path><path d="M682 656L699 607L650 600Z" fill="#2b2b2b" stroke="#2b2b2b"></path><path d="M212 576L242 598L228 510Z" fill="#282828" stroke="#282828"></path><path d="M348 647L365 675L402 675Z" fill="#262626" stroke="#262626"></path><path d="M125 324L187 334L178 252Z" fill="#2a2a2a" stroke="#2a2a2a"></path><path d="M125 324L139 345L187 334Z" fill="#2b2b2b" stroke="#2b2b2b"></path><path d="M169 410L138 442L176 488Z" fill="#2b2b2b" stroke="#2b2b2b"></path><path d="M657 124L664 103L636 106Z" fill="#2b2b2b" stroke="#2b2b2b"></path><path d="M560 0L497 32L540 93Z" fill="#2f2f2f" stroke="#2f2f2f"></path><path d="M738 134L693 204L751 141Z" fill="#292929" stroke="#292929"></path><path d="M242 598L271 626L298 601Z" fill="#262626" stroke="#262626"></path><path d="M335 675L365 675L348 647Z" fill="#2b2b2b" stroke="#2b2b2b"></path><path d="M620 65L609 125L636 106Z" fill="#262626" stroke="#262626"></path><path d="M457 52L421 0L402 43Z" fill="#2f2f2f" stroke="#2f2f2f"></path><path d="M168 189L194 195L181 137Z" fill="#292929" stroke="#292929"></path><path d="M194 195L173 204L210 218Z" fill="#272727" stroke="#272727"></path><path d="M273 675L282 643L271 626Z" fill="#303030" stroke="#303030"></path><path d="M190 519L212 576L228 510Z" fill="#292929" stroke="#292929"></path><path d="M198 572L212 576L190 519Z" fill="#262626" stroke="#262626"></path><path d="M528 675L574 675L551 674Z" fill="#2d2d2d" stroke="#2d2d2d"></path><path d="M551 674L574 675L583 651Z" fill="#2c2c2c" stroke="#2c2c2c"></path><path d="M784 546L787 449L733 484Z" fill="#2d2d2d" stroke="#2d2d2d"></path><path d="M810 349L808 333L766 369Z" fill="#262626" stroke="#262626"></path><path d="M766 369L790 277L746 260Z" fill="#303030" stroke="#303030"></path><path d="M664 103L620 65L636 106Z" fill="#2b2b2b" stroke="#2b2b2b"></path><path d="M497 32L470 26L457 52Z" fill="#303030" stroke="#303030"></path><path d="M219 615L271 626L242 598Z" fill="#2b2b2b" stroke="#2b2b2b"></path><path d="M271 626L282 643L298 601Z" fill="#2e2e2e" stroke="#2e2e2e"></path><path d="M808 333L790 277L766 369Z" fill="#2d2d2d" stroke="#2d2d2d"></path><path d="M746 260L792 245L736 230Z" fill="#2d2d2d" stroke="#2d2d2d"></path><path d="M751 141L693 204L706 214Z" fill="#282828" stroke="#282828"></path><path d="M89 403L138 442L169 410Z" fill="#2c2c2c" stroke="#2c2c2c"></path><path d="M139 543L198 572L190 519Z" fill="#2a2a2a" stroke="#2a2a2a"></path><path d="M316 675L335 675L348 647Z" fill="#2b2b2b" stroke="#2b2b2b"></path><path d="M212 576L219 615L242 598Z" fill="#2b2b2b" stroke="#2b2b2b"></path><path d="M139 543L190 519L176 488Z" fill="#2a2a2a" stroke="#2a2a2a"></path><path d="M606 675L650 600L583 651Z" fill="#292929" stroke="#292929"></path><path d="M706 573L745 576L733 484Z" fill="#2e2e2e" stroke="#2e2e2e"></path><path d="M139 345L124 362L169 410Z" fill="#2c2c2c" stroke="#2c2c2c"></path><path d="M125 324L124 362L139 345Z" fill="#272727" stroke="#272727"></path><path d="M79 310L125 324L178 252Z" fill="#303030" stroke="#303030"></path><path d="M195 132L313 192L286 104Z" fill="#292929" stroke="#292929"></path><path d="M173 204L117 199L178 252Z" fill="#262626" stroke="#262626"></path><path d="M574 675L606 675L583 651Z" fill="#2a2a2a" stroke="#2a2a2a"></path><path d="M810 349L766 369L824 437Z" fill="#292929" stroke="#292929"></path><path d="M611 33L616 51L651 0Z" fill="#272727" stroke="#272727"></path><path d="M620 65L616 51L540 93Z" fill="#2f2f2f" stroke="#2f2f2f"></path><path d="M492 0L467 14L470 26Z" fill="#292929" stroke="#292929"></path><path d="M824 437L766 369L778 436Z" fill="#2d2d2d" stroke="#2d2d2d"></path><path d="M307 49L261 80L300 85Z" fill="#2a2a2a" stroke="#2a2a2a"></path><path d="M300 85L261 80L286 104Z" fill="#2d2d2d" stroke="#2d2d2d"></path><path d="M492 0L470 26L497 32Z" fill="#303030" stroke="#303030"></path><path d="M470 26L467 14L457 52Z" fill="#2f2f2f" stroke="#2f2f2f"></path><path d="M368 14L307 49L356 75Z" fill="#2e2e2e" stroke="#2e2e2e"></path><path d="M282 643L316 675L348 647Z" fill="#2f2f2f" stroke="#2f2f2f"></path><path d="M273 675L316 675L282 643Z" fill="#282828" stroke="#282828"></path><path d="M818 265L792 245L790 277Z" fill="#2f2f2f" stroke="#2f2f2f"></path><path d="M790 277L792 245L746 260Z" fill="#2b2b2b" stroke="#2b2b2b"></path><path d="M368 14L356 75L402 43Z" fill="#303030" stroke="#303030"></path><path d="M198 572L219 615L212 576Z" fill="#2f2f2f" stroke="#2f2f2f"></path><path d="M788 624L745 576L699 607Z" fill="#2b2b2b" stroke="#2b2b2b"></path><path d="M699 607L745 576L706 573Z" fill="#2a2a2a" stroke="#2a2a2a"></path><path d="M261 80L195 132L286 104Z" fill="#2e2e2e" stroke="#2e2e2e"></path><path d="M751 141L706 214L736 230Z" fill="#292929" stroke="#292929"></path><path d="M638 0L611 33L651 0Z" fill="#2e2e2e" stroke="#2e2e2e"></path><path d="M751 141L739 133L738 134Z" fill="#2b2b2b" stroke="#2b2b2b"></path><path d="M738 134L739 133L664 103Z" fill="#282828" stroke="#282828"></path><path d="M101 432L128 485L138 442Z" fill="#2a2a2a" stroke="#2a2a2a"></path><path d="M138 442L128 485L176 488Z" fill="#282828" stroke="#282828"></path><path d="M198 572L180 631L219 615Z" fill="#262626" stroke="#262626"></path><path d="M616 51L620 65L651 0Z" fill="#292929" stroke="#292929"></path><path d="M616 51L611 33L540 93Z" fill="#303030" stroke="#303030"></path><path d="M128 485L129 490L176 488Z" fill="#2c2c2c" stroke="#2c2c2c"></path><path d="M393 0L368 14L402 43Z" fill="#2f2f2f" stroke="#2f2f2f"></path><path d="M813 169L751 141L736 230Z" fill="#2b2b2b" stroke="#2b2b2b"></path><path d="M638 0L584 0L611 33Z" fill="#272727" stroke="#272727"></path><path d="M173 122L181 137L195 132Z" fill="#2d2d2d" stroke="#2d2d2d"></path><path d="M195 132L181 137L194 195Z" fill="#2d2d2d" stroke="#2d2d2d"></path><path d="M168 189L117 199L173 204Z" fill="#292929" stroke="#292929"></path><path d="M745 576L773 550L733 484Z" fill="#303030" stroke="#303030"></path><path d="M787 449L824 437L778 436Z" fill="#2a2a2a" stroke="#2a2a2a"></path><path d="M560 0L492 0L497 32Z" fill="#2b2b2b" stroke="#2b2b2b"></path><path d="M467 14L421 0L457 52Z" fill="#303030" stroke="#303030"></path><path d="M492 0L421 0L467 14Z" fill="#262626" stroke="#262626"></path><path d="M808 333L818 265L790 277Z" fill="#303030" stroke="#303030"></path><path d="M813 169L772 134L751 141Z" fill="#2c2c2c" stroke="#2c2c2c"></path><path d="M892 325L818 265L808 333Z" fill="#2e2e2e" stroke="#2e2e2e"></path><path d="M663 675L682 656L650 600Z" fill="#2f2f2f" stroke="#2f2f2f"></path><path d="M798 553L784 546L773 550Z" fill="#2e2e2e" stroke="#2e2e2e"></path><path d="M855 485L824 437L787 449Z" fill="#262626" stroke="#262626"></path><path d="M810 349L868 363L808 333Z" fill="#262626" stroke="#262626"></path><path d="M219 615L273 675L271 626Z" fill="#262626" stroke="#262626"></path><path d="M421 0L393 0L402 43Z" fill="#2f2f2f" stroke="#2f2f2f"></path><path d="M798 553L773 550L802 609Z" fill="#292929" stroke="#292929"></path><path d="M773 550L784 546L733 484Z" fill="#2c2c2c" stroke="#2c2c2c"></path><path d="M818 265L816 246L792 245Z" fill="#2f2f2f" stroke="#2f2f2f"></path><path d="M89 403L169 410L124 362Z" fill="#2a2a2a" stroke="#2a2a2a"></path><path d="M89 403L101 432L138 442Z" fill="#262626" stroke="#262626"></path><path d="M128 485L97 490L129 490Z" fill="#2d2d2d" stroke="#2d2d2d"></path><path d="M606 675L663 675L650 600Z" fill="#292929" stroke="#292929"></path><path d="M96 515L139 543L129 490Z" fill="#2b2b2b" stroke="#2b2b2b"></path><path d="M129 490L139 543L176 488Z" fill="#2d2d2d" stroke="#2d2d2d"></path><path d="M219 615L188 675L273 675Z" fill="#2c2c2c" stroke="#2c2c2c"></path><path d="M611 33L560 0L540 93Z" fill="#272727" stroke="#272727"></path><path d="M186 106L195 132L261 80Z" fill="#2f2f2f" stroke="#2f2f2f"></path><path d="M186 106L173 122L195 132Z" fill="#262626" stroke="#262626"></path><path d="M181 137L117 199L168 189Z" fill="#2f2f2f" stroke="#2f2f2f"></path><path d="M186 106L197 46L174 90Z" fill="#2a2a2a" stroke="#2a2a2a"></path><path d="M261 80L307 49L229 41Z" fill="#2b2b2b" stroke="#2b2b2b"></path><path d="M322 0L307 49L368 14Z" fill="#272727" stroke="#272727"></path><path d="M79 392L89 403L124 362Z" fill="#2c2c2c" stroke="#2c2c2c"></path><path d="M101 432L97 490L128 485Z" fill="#2b2b2b" stroke="#2b2b2b"></path><path d="M79 392L124 362L54 349Z" fill="#2b2b2b" stroke="#2b2b2b"></path><path d="M611 33L584 0L560 0Z" fill="#292929" stroke="#292929"></path><path d="M751 90L664 103L739 133Z" fill="#282828" stroke="#282828"></path><path d="M813 169L736 230L792 245Z" fill="#272727" stroke="#272727"></path><path d="M751 141L772 134L739 133Z" fill="#282828" stroke="#282828"></path><path d="M173 122L117 199L181 137Z" fill="#282828" stroke="#282828"></path><path d="M802 609L773 550L745 576Z" fill="#2b2b2b" stroke="#2b2b2b"></path><path d="M784 546L855 485L787 449Z" fill="#2e2e2e" stroke="#2e2e2e"></path><path d="M729 675L699 607L682 656Z" fill="#2e2e2e" stroke="#2e2e2e"></path><path d="M79 310L124 362L125 324Z" fill="#2f2f2f" stroke="#2f2f2f"></path><path d="M89 403L70 418L101 432Z" fill="#2b2b2b" stroke="#2b2b2b"></path><path d="M393 0L322 0L368 14Z" fill="#262626" stroke="#262626"></path><path d="M117 199L79 310L178 252Z" fill="#2f2f2f" stroke="#2f2f2f"></path><path d="M92 500L97 490L70 479Z" fill="#303030" stroke="#303030"></path><path d="M322 0L318 0L307 49Z" fill="#2e2e2e" stroke="#2e2e2e"></path><path d="M132 609L198 572L139 543Z" fill="#292929" stroke="#292929"></path><path d="M132 609L180 631L198 572Z" fill="#282828" stroke="#282828"></path><path d="M772 134L751 90L739 133Z" fill="#2f2f2f" stroke="#2f2f2f"></path><path d="M318 0L305 0L307 49Z" fill="#292929" stroke="#292929"></path><path d="M186 106L174 90L173 122Z" fill="#2b2b2b" stroke="#2b2b2b"></path><path d="M173 122L136 97L117 199Z" fill="#303030" stroke="#303030"></path><path d="M229 41L186 106L261 80Z" fill="#2c2c2c" stroke="#2c2c2c"></path><path d="M305 0L229 41L307 49Z" fill="#2b2b2b" stroke="#2b2b2b"></path><path d="M70 479L97 490L101 432Z" fill="#292929" stroke="#292929"></path><path d="M97 490L96 515L129 490Z" fill="#292929" stroke="#292929"></path><path d="M837 193L813 169L792 245Z" fill="#282828" stroke="#282828"></path><path d="M772 134L816 90L751 90Z" fill="#2e2e2e" stroke="#2e2e2e"></path><path d="M837 193L792 245L816 246Z" fill="#2e2e2e" stroke="#2e2e2e"></path><path d="M62 423L70 418L79 392Z" fill="#2f2f2f" stroke="#2f2f2f"></path><path d="M79 392L70 418L89 403Z" fill="#2a2a2a" stroke="#2a2a2a"></path><path d="M73 521L96 515L92 500Z" fill="#2d2d2d" stroke="#2d2d2d"></path><path d="M92 500L96 515L97 490Z" fill="#2c2c2c" stroke="#2c2c2c"></path><path d="M651 0L620 65L721 31Z" fill="#2f2f2f" stroke="#2f2f2f"></path><path d="M96 515L104 539L139 543Z" fill="#262626" stroke="#262626"></path><path d="M900 408L868 363L824 437Z" fill="#2c2c2c" stroke="#2c2c2c"></path><path d="M824 437L868 363L810 349Z" fill="#2e2e2e" stroke="#2e2e2e"></path><path d="M818 265L853 239L816 246Z" fill="#2d2d2d" stroke="#2d2d2d"></path><path d="M721 31L620 65L664 103Z" fill="#2f2f2f" stroke="#2f2f2f"></path><path d="M54 349L62 423L79 392Z" fill="#272727" stroke="#272727"></path><path d="M70 418L62 423L101 432Z" fill="#272727" stroke="#272727"></path><path d="M96 515L73 521L104 539Z" fill="#2b2b2b" stroke="#2b2b2b"></path><path d="M892 325L853 239L818 265Z" fill="#303030" stroke="#303030"></path><path d="M751 90L734 54L664 103Z" fill="#2b2b2b" stroke="#2b2b2b"></path><path d="M809 46L734 54L751 90Z" fill="#2e2e2e" stroke="#2e2e2e"></path><path d="M853 239L837 193L816 246Z" fill="#272727" stroke="#272727"></path><path d="M813 169L816 90L772 134Z" fill="#292929" stroke="#292929"></path><path d="M813 169L835 187L893 165Z" fill="#282828" stroke="#282828"></path><path d="M837 193L835 187L813 169Z" fill="#262626" stroke="#262626"></path><path d="M798 553L855 485L784 546Z" fill="#2e2e2e" stroke="#2e2e2e"></path><path d="M663 675L729 675L682 656Z" fill="#303030" stroke="#303030"></path><path d="M798 553L889 519L855 485Z" fill="#2e2e2e" stroke="#2e2e2e"></path><path d="M44 314L54 349L79 310Z" fill="#272727" stroke="#272727"></path><path d="M79 310L54 349L124 362Z" fill="#303030" stroke="#303030"></path><path d="M62 423L70 479L101 432Z" fill="#2d2d2d" stroke="#2d2d2d"></path><path d="M220 11L197 46L229 41Z" fill="#272727" stroke="#272727"></path><path d="M229 41L197 46L186 106Z" fill="#272727" stroke="#272727"></path><path d="M174 90L136 97L173 122Z" fill="#2e2e2e" stroke="#2e2e2e"></path><path d="M104 539L132 609L139 543Z" fill="#2b2b2b" stroke="#2b2b2b"></path><path d="M180 631L188 675L219 615Z" fill="#2b2b2b" stroke="#2b2b2b"></path><path d="M75 584L132 609L104 539Z" fill="#262626" stroke="#262626"></path><path d="M729 675L738 675L699 607Z" fill="#272727" stroke="#272727"></path><path d="M738 675L788 624L699 607Z" fill="#2c2c2c" stroke="#2c2c2c"></path><path d="M734 0L746 0L737 -1Z" fill="#272727" stroke="#272727"></path><path d="M734 54L721 31L664 103Z" fill="#262626" stroke="#262626"></path><path d="M176 675L188 675L180 631Z" fill="#2b2b2b" stroke="#2b2b2b"></path><path d="M788 624L802 609L745 576Z" fill="#2b2b2b" stroke="#2b2b2b"></path><path d="M175 38L136 97L174 90Z" fill="#282828" stroke="#282828"></path><path d="M51 242L44 314L79 310Z" fill="#2b2b2b" stroke="#2b2b2b"></path><path d="M0 456L73 521L70 479Z" fill="#272727" stroke="#272727"></path><path d="M70 479L73 521L92 500Z" fill="#2f2f2f" stroke="#2f2f2f"></path><path d="M51 242L79 310L117 199Z" fill="#2f2f2f" stroke="#2f2f2f"></path><path d="M54 349L0 359L62 423Z" fill="#272727" stroke="#272727"></path><path d="M62 423L0 456L70 479Z" fill="#262626" stroke="#262626"></path><path d="M129 656L180 631L132 609Z" fill="#2a2a2a" stroke="#2a2a2a"></path><path d="M129 656L176 675L180 631Z" fill="#2b2b2b" stroke="#2b2b2b"></path><path d="M197 46L175 38L174 90Z" fill="#292929" stroke="#292929"></path><path d="M305 0L220 11L229 41Z" fill="#282828" stroke="#282828"></path><path d="M900 342L892 325L868 363Z" fill="#282828" stroke="#282828"></path><path d="M868 363L892 325L808 333Z" fill="#282828" stroke="#282828"></path><path d="M893 165L835 187L837 193Z" fill="#303030" stroke="#303030"></path><path d="M54 208L51 242L117 199Z" fill="#2b2b2b" stroke="#2b2b2b"></path><path d="M900 497L883 473L855 485Z" fill="#2c2c2c" stroke="#2c2c2c"></path><path d="M855 485L883 473L824 437Z" fill="#303030" stroke="#303030"></path><path d="M197 0L175 38L197 46Z" fill="#2d2d2d" stroke="#2d2d2d"></path><path d="M900 408L900 362L868 363Z" fill="#282828" stroke="#282828"></path><path d="M900 362L900 342L868 363Z" fill="#262626" stroke="#262626"></path><path d="M900 221L837 193L853 239Z" fill="#292929" stroke="#292929"></path><path d="M55 182L54 208L117 199Z" fill="#292929" stroke="#292929"></path><path d="M0 331L24 333L44 314Z" fill="#2f2f2f" stroke="#2f2f2f"></path><path d="M55 182L117 199L63 133Z" fill="#303030" stroke="#303030"></path><path d="M900 443L900 408L824 437Z" fill="#2d2d2d" stroke="#2d2d2d"></path><path d="M788 624L809 633L802 609Z" fill="#282828" stroke="#282828"></path><path d="M802 609L843 594L798 553Z" fill="#2d2d2d" stroke="#2d2d2d"></path><path d="M816 675L809 633L788 624Z" fill="#2f2f2f" stroke="#2f2f2f"></path><path d="M0 359L24 333L0 331Z" fill="#272727" stroke="#272727"></path><path d="M44 314L24 333L54 349Z" fill="#2e2e2e" stroke="#2e2e2e"></path><path d="M900 497L900 443L883 473Z" fill="#2e2e2e" stroke="#2e2e2e"></path><path d="M883 473L900 443L824 437Z" fill="#2b2b2b" stroke="#2b2b2b"></path><path d="M900 245L853 239L892 325Z" fill="#292929" stroke="#292929"></path><path d="M879 92L816 90L813 169Z" fill="#262626" stroke="#262626"></path><path d="M809 633L843 594L802 609Z" fill="#282828" stroke="#282828"></path><path d="M63 637L129 656L132 609Z" fill="#2c2c2c" stroke="#2c2c2c"></path><path d="M63 133L117 199L136 97Z" fill="#2c2c2c" stroke="#2c2c2c"></path><path d="M0 331L44 314L0 253Z" fill="#2e2e2e" stroke="#2e2e2e"></path><path d="M65 608L75 584L0 582Z" fill="#2c2c2c" stroke="#2c2c2c"></path><path d="M73 521L75 584L104 539Z" fill="#292929" stroke="#292929"></path><path d="M220 11L197 0L197 46Z" fill="#272727" stroke="#272727"></path><path d="M87 87L63 133L136 97Z" fill="#303030" stroke="#303030"></path><path d="M305 0L197 0L220 11Z" fill="#2c2c2c" stroke="#2c2c2c"></path><path d="M734 0L721 31L746 0Z" fill="#292929" stroke="#292929"></path><path d="M721 31L734 0L651 0Z" fill="#303030" stroke="#303030"></path><path d="M900 342L900 245L892 325Z" fill="#2f2f2f" stroke="#2f2f2f"></path><path d="M892 525L889 519L798 553Z" fill="#2e2e2e" stroke="#2e2e2e"></path><path d="M746 0L721 31L734 54Z" fill="#282828" stroke="#282828"></path><path d="M734 0L737 -1L651 0Z" fill="#272727" stroke="#272727"></path><path d="M651 0L737 -1L638 0Z" fill="#303030" stroke="#303030"></path><path d="M638 0L737 -1L584 0Z" fill="#282828" stroke="#282828"></path><path d="M584 0L737 -1L560 0Z" fill="#2b2b2b" stroke="#2b2b2b"></path><path d="M560 0L737 -1L492 0Z" fill="#272727" stroke="#272727"></path><path d="M492 0L737 -1L421 0Z" fill="#2f2f2f" stroke="#2f2f2f"></path><path d="M421 0L737 -1L393 0Z" fill="#2a2a2a" stroke="#2a2a2a"></path><path d="M393 0L737 -1L322 0Z" fill="#303030" stroke="#303030"></path><path d="M322 0L737 -1L318 0Z" fill="#2b2b2b" stroke="#2b2b2b"></path><path d="M318 0L737 -1L305 0Z" fill="#303030" stroke="#303030"></path><path d="M305 0L737 -1L197 0Z" fill="#292929" stroke="#292929"></path><path d="M889 519L900 497L855 485Z" fill="#272727" stroke="#272727"></path><path d="M53 675L132 675L129 656Z" fill="#2c2c2c" stroke="#2c2c2c"></path><path d="M129 656L132 675L176 675Z" fill="#292929" stroke="#292929"></path><path d="M900 245L900 221L853 239Z" fill="#262626" stroke="#262626"></path><path d="M879 92L820 73L816 90Z" fill="#303030" stroke="#303030"></path><path d="M816 90L820 73L751 90Z" fill="#2f2f2f" stroke="#2f2f2f"></path><path d="M786 0L746 0L734 54Z" fill="#2c2c2c" stroke="#2c2c2c"></path><path d="M843 594L892 525L798 553Z" fill="#303030" stroke="#303030"></path><path d="M889 519L892 525L900 497Z" fill="#2e2e2e" stroke="#2e2e2e"></path><path d="M87 87L136 97L89 47Z" fill="#292929" stroke="#292929"></path><path d="M44 314L51 242L0 253Z" fill="#2f2f2f" stroke="#2f2f2f"></path><path d="M51 242L0 235L0 253Z" fill="#282828" stroke="#282828"></path><path d="M24 333L0 359L54 349Z" fill="#262626" stroke="#262626"></path><path d="M51 242L54 208L0 235Z" fill="#262626" stroke="#262626"></path><path d="M89 47L136 97L175 38Z" fill="#282828" stroke="#282828"></path><path d="M900 221L900 194L837 193Z" fill="#282828" stroke="#282828"></path><path d="M900 39L809 46L820 73Z" fill="#2c2c2c" stroke="#2c2c2c"></path><path d="M820 73L809 46L751 90Z" fill="#2d2d2d" stroke="#2d2d2d"></path><path d="M0 359L0 423L62 423Z" fill="#2c2c2c" stroke="#2c2c2c"></path><path d="M0 553L75 584L73 521Z" fill="#2d2d2d" stroke="#2d2d2d"></path><path d="M75 584L65 608L132 609Z" fill="#262626" stroke="#262626"></path><path d="M0 423L0 433L62 423Z" fill="#292929" stroke="#292929"></path><path d="M900 194L893 165L837 193Z" fill="#303030" stroke="#303030"></path><path d="M809 633L820 675L843 594Z" fill="#2f2f2f" stroke="#2f2f2f"></path><path d="M843 594L900 577L892 525Z" fill="#2a2a2a" stroke="#2a2a2a"></path><path d="M738 675L816 675L788 624Z" fill="#2c2c2c" stroke="#2c2c2c"></path><path d="M0 433L0 456L62 423Z" fill="#282828" stroke="#282828"></path><path d="M816 675L820 675L809 633Z" fill="#303030" stroke="#303030"></path><path d="M900 194L900 173L893 165Z" fill="#2e2e2e" stroke="#2e2e2e"></path><path d="M815 0L786 0L809 46Z" fill="#2c2c2c" stroke="#2c2c2c"></path><path d="M54 208L55 182L0 175Z" fill="#2d2d2d" stroke="#2d2d2d"></path><path d="M0 235L54 208L0 175Z" fill="#272727" stroke="#272727"></path><path d="M0 175L55 182L0 168Z" fill="#2e2e2e" stroke="#2e2e2e"></path><path d="M89 47L63 92L87 87Z" fill="#2b2b2b" stroke="#2b2b2b"></path><path d="M87 87L63 92L63 133Z" fill="#303030" stroke="#303030"></path><path d="M809 46L786 0L734 54Z" fill="#2a2a2a" stroke="#2a2a2a"></path><path d="M746 0L786 0L737 -1Z" fill="#272727" stroke="#272727"></path><path d="M879 92L813 169L893 165Z" fill="#262626" stroke="#262626"></path><path d="M900 583L900 577L843 594Z" fill="#292929" stroke="#292929"></path><path d="M892 525L900 577L900 497Z" fill="#2c2c2c" stroke="#2c2c2c"></path><path d="M52 633L63 637L65 608Z" fill="#262626" stroke="#262626"></path><path d="M65 608L63 637L132 609Z" fill="#272727" stroke="#272727"></path><path d="M900 610L900 583L843 594Z" fill="#292929" stroke="#292929"></path><path d="M128 0L89 47L175 38Z" fill="#262626" stroke="#262626"></path><path d="M737 -1L128 0L197 0Z" fill="#2a2a2a" stroke="#2a2a2a"></path><path d="M197 0L128 0L175 38Z" fill="#2e2e2e" stroke="#2e2e2e"></path><path d="M0 585L52 633L65 608Z" fill="#2d2d2d" stroke="#2d2d2d"></path><path d="M63 637L53 675L129 656Z" fill="#2f2f2f" stroke="#2f2f2f"></path><path d="M900 103L879 92L893 165Z" fill="#292929" stroke="#292929"></path><path d="M55 182L63 133L0 151Z" fill="#2b2b2b" stroke="#2b2b2b"></path><path d="M0 168L55 182L0 151Z" fill="#2b2b2b" stroke="#2b2b2b"></path><path d="M900 675L900 610L843 594Z" fill="#2d2d2d" stroke="#2d2d2d"></path><path d="M0 456L0 553L73 521Z" fill="#2b2b2b" stroke="#2b2b2b"></path><path d="M0 151L63 133L0 130Z" fill="#2b2b2b" stroke="#2b2b2b"></path><path d="M900 39L815 0L809 46Z" fill="#262626" stroke="#262626"></path><path d="M786 0L815 0L737 -1Z" fill="#2e2e2e" stroke="#2e2e2e"></path><path d="M900 173L900 103L893 165Z" fill="#2a2a2a" stroke="#2a2a2a"></path><path d="M879 92L900 39L820 73Z" fill="#272727" stroke="#272727"></path><path d="M0 130L63 133L63 92Z" fill="#292929" stroke="#292929"></path><path d="M0 130L63 92L27 65Z" fill="#303030" stroke="#303030"></path><path d="M0 553L0 582L75 584Z" fill="#303030" stroke="#303030"></path><path d="M0 582L0 585L65 608Z" fill="#2c2c2c" stroke="#2c2c2c"></path><path d="M52 633L53 675L63 637Z" fill="#2e2e2e" stroke="#2e2e2e"></path><path d="M2 675L53 675L52 633Z" fill="#262626" stroke="#262626"></path><path d="M27 65L63 92L89 47Z" fill="#262626" stroke="#262626"></path><path d="M45 0L27 65L89 47Z" fill="#2b2b2b" stroke="#2b2b2b"></path><path d="M820 675L900 675L843 594Z" fill="#2e2e2e" stroke="#2e2e2e"></path><path d="M900 103L900 39L879 92Z" fill="#2b2b2b" stroke="#2b2b2b"></path><path d="M0 0L0 64L27 65Z" fill="#2e2e2e" stroke="#2e2e2e"></path><path d="M27 65L0 64L0 130Z" fill="#2f2f2f" stroke="#2f2f2f"></path><path d="M737 -1L45 0L128 0Z" fill="#2b2b2b" stroke="#2b2b2b"></path><path d="M128 0L45 0L89 47Z" fill="#282828" stroke="#282828"></path><path d="M0 585L2 675L52 633Z" fill="#272727" stroke="#272727"></path><path d="M737 -1L37 0L45 0Z" fill="#282828" stroke="#282828"></path><path d="M45 0L37 0L27 65Z" fill="#262626" stroke="#262626"></path><path d="M0 585L0 675L2 675Z" fill="#2b2b2b" stroke="#2b2b2b"></path><path d="M900 39L900 0L815 0Z" fill="#2d2d2d" stroke="#2d2d2d"></path><path d="M815 0L900 0L737 -1Z" fill="#2d2d2d" stroke="#2d2d2d"></path><path d="M737 -1L0 0L37 0Z" fill="#2a2a2a" stroke="#2a2a2a"></path><path d="M37 0L0 0L27 65Z" fill="#272727" stroke="#272727"></path></g></svg>