<svg xmlns="http://www.w3.org/2000/svg" xmlns:xlink="http://www.w3.org/1999/xlink" id="visual" viewBox="0 0 900 600" width="900" height="600" version="1.1"><g stroke-width="1" stroke-linejoin="bevel"><path d="M437 320L485 338L484 324Z" fill="#414a5b" stroke="#414a5b"/><path d="M437 320L448 372L485 338Z" fill="#38404f" stroke="#38404f"/><path d="M512 389L513 330L485 338Z" fill="#303643" stroke="#303643"/><path d="M485 338L513 330L484 324Z" fill="#343b49" stroke="#343b49"/><path d="M455 226L426 264L484 324Z" fill="#3f4758" stroke="#3f4758"/><path d="M484 324L426 264L437 320Z" fill="#363e4c" stroke="#363e4c"/><path d="M448 372L512 389L485 338Z" fill="#323946" stroke="#323946"/><path d="M426 264L405 271L437 320Z" fill="#2e3440" stroke="#2e3440"/><path d="M437 320L379 355L448 372Z" fill="#323946" stroke="#323946"/><path d="M405 271L384 299L437 320Z" fill="#3a4252" stroke="#3a4252"/><path d="M384 299L379 355L437 320Z" fill="#323946" stroke="#323946"/><path d="M448 372L430 429L512 389Z" fill="#414a5b" stroke="#414a5b"/><path d="M512 389L531 382L513 330Z" fill="#303643" stroke="#303643"/><path d="M405 271L374 286L384 299Z" fill="#343b49" stroke="#343b49"/><path d="M384 299L344 311L379 355Z" fill="#3c4555" stroke="#3c4555"/><path d="M383 405L430 429L448 372Z" fill="#303643" stroke="#303643"/><path d="M512 389L546 423L531 382Z" fill="#38404f" stroke="#38404f"/><path d="M379 355L383 405L448 372Z" fill="#323946" stroke="#323946"/><path d="M517 235L455 226L484 324Z" fill="#414a5b" stroke="#414a5b"/><path d="M400 165L346 240L405 271Z" fill="#434c5e" stroke="#434c5e"/><path d="M346 240L335 274L374 286Z" fill="#343b49" stroke="#343b49"/><path d="M383 405L415 434L430 429Z" fill="#323946" stroke="#323946"/><path d="M586 289L517 235L513 330Z" fill="#2e3440" stroke="#2e3440"/><path d="M513 330L517 235L484 324Z" fill="#303643" stroke="#303643"/><path d="M374 286L344 311L384 299Z" fill="#414a5b" stroke="#414a5b"/><path d="M379 355L336 411L383 405Z" fill="#3a4252" stroke="#3a4252"/><path d="M372 455L420 446L415 434Z" fill="#343b49" stroke="#343b49"/><path d="M415 434L420 446L430 429Z" fill="#2e3440" stroke="#2e3440"/><path d="M494 454L546 423L512 389Z" fill="#303643" stroke="#303643"/><path d="M494 454L512 389L430 429Z" fill="#414a5b" stroke="#414a5b"/><path d="M597 369L586 289L513 330Z" fill="#323946" stroke="#323946"/><path d="M420 446L494 454L430 429Z" fill="#3c4555" stroke="#3c4555"/><path d="M597 369L513 330L531 382Z" fill="#323946" stroke="#323946"/><path d="M346 240L374 286L405 271Z" fill="#323946" stroke="#323946"/><path d="M374 286L335 274L344 311Z" fill="#434c5e" stroke="#434c5e"/><path d="M546 423L591 379L531 382Z" fill="#434c5e" stroke="#434c5e"/><path d="M591 379L597 369L531 382Z" fill="#414a5b" stroke="#414a5b"/><path d="M310 376L336 411L379 355Z" fill="#3f4758" stroke="#3f4758"/><path d="M383 405L372 455L415 434Z" fill="#3f4758" stroke="#3f4758"/><path d="M310 376L379 355L344 311Z" fill="#363e4c" stroke="#363e4c"/><path d="M400 165L405 271L426 264Z" fill="#3c4555" stroke="#3c4555"/><path d="M336 411L372 455L383 405Z" fill="#3f4758" stroke="#3f4758"/><path d="M420 446L480 495L494 454Z" fill="#323946" stroke="#323946"/><path d="M577 195L477 182L517 235Z" fill="#2e3440" stroke="#2e3440"/><path d="M517 235L477 182L455 226Z" fill="#3f4758" stroke="#3f4758"/><path d="M455 226L400 165L426 264Z" fill="#414a5b" stroke="#414a5b"/><path d="M229 336L310 376L344 311Z" fill="#323946" stroke="#323946"/><path d="M463 535L480 495L420 446Z" fill="#3f4758" stroke="#3f4758"/><path d="M494 454L544 473L546 423Z" fill="#323946" stroke="#323946"/><path d="M546 423L604 457L591 379Z" fill="#2e3440" stroke="#2e3440"/><path d="M527 505L544 473L494 454Z" fill="#343b49" stroke="#343b49"/><path d="M591 379L691 422L597 369Z" fill="#38404f" stroke="#38404f"/><path d="M672 321L631 315L673 325Z" fill="#414a5b" stroke="#414a5b"/><path d="M597 369L631 315L586 289Z" fill="#3c4555" stroke="#3c4555"/><path d="M586 289L599 227L517 235Z" fill="#363e4c" stroke="#363e4c"/><path d="M527 505L568 470L544 473Z" fill="#38404f" stroke="#38404f"/><path d="M544 473L568 470L546 423Z" fill="#434c5e" stroke="#434c5e"/><path d="M616 229L599 227L586 289Z" fill="#434c5e" stroke="#434c5e"/><path d="M477 182L400 165L455 226Z" fill="#303643" stroke="#303643"/><path d="M599 227L577 195L517 235Z" fill="#323946" stroke="#323946"/><path d="M477 182L435 125L400 165Z" fill="#3c4555" stroke="#3c4555"/><path d="M310 376L294 412L336 411Z" fill="#323946" stroke="#323946"/><path d="M336 411L274 449L372 455Z" fill="#303643" stroke="#303643"/><path d="M283 411L294 412L310 376Z" fill="#3c4555" stroke="#3c4555"/><path d="M480 495L527 505L494 454Z" fill="#323946" stroke="#323946"/><path d="M672 321L644 299L631 315Z" fill="#323946" stroke="#323946"/><path d="M631 315L644 299L586 289Z" fill="#3c4555" stroke="#3c4555"/><path d="M644 299L616 229L586 289Z" fill="#3a4252" stroke="#3a4252"/><path d="M599 227L588 174L577 195Z" fill="#323946" stroke="#323946"/><path d="M625 502L604 457L568 470Z" fill="#323946" stroke="#323946"/><path d="M568 470L604 457L546 423Z" fill="#3a4252" stroke="#3a4252"/><path d="M274 449L370 501L372 455Z" fill="#3f4758" stroke="#3f4758"/><path d="M372 455L370 501L420 446Z" fill="#3c4555" stroke="#3c4555"/><path d="M480 495L463 535L527 505Z" fill="#414a5b" stroke="#414a5b"/><path d="M229 396L283 411L310 376Z" fill="#3a4252" stroke="#3a4252"/><path d="M294 412L274 449L336 411Z" fill="#434c5e" stroke="#434c5e"/><path d="M229 336L344 311L335 274Z" fill="#303643" stroke="#303643"/><path d="M370 501L463 535L420 446Z" fill="#3f4758" stroke="#3f4758"/><path d="M538 123L485 132L477 182Z" fill="#38404f" stroke="#38404f"/><path d="M616 229L588 174L599 227Z" fill="#303643" stroke="#303643"/><path d="M577 195L538 123L477 182Z" fill="#323946" stroke="#323946"/><path d="M400 165L306 198L346 240Z" fill="#363e4c" stroke="#363e4c"/><path d="M346 240L306 198L335 274Z" fill="#2e3440" stroke="#2e3440"/><path d="M284 183L306 198L284 145Z" fill="#3a4252" stroke="#3a4252"/><path d="M485 132L435 125L477 182Z" fill="#3a4252" stroke="#3a4252"/><path d="M673 325L631 315L688 351Z" fill="#3a4252" stroke="#3a4252"/><path d="M644 299L671 285L616 229Z" fill="#2e3440" stroke="#2e3440"/><path d="M665 159L610 147L588 174Z" fill="#434c5e" stroke="#434c5e"/><path d="M688 351L631 315L597 369Z" fill="#3c4555" stroke="#3c4555"/><path d="M699 267L671 285L721 306Z" fill="#3f4758" stroke="#3f4758"/><path d="M672 321L671 285L644 299Z" fill="#343b49" stroke="#343b49"/><path d="M261 435L274 449L283 411Z" fill="#2e3440" stroke="#2e3440"/><path d="M283 411L274 449L294 412Z" fill="#343b49" stroke="#343b49"/><path d="M229 396L261 435L283 411Z" fill="#3a4252" stroke="#3a4252"/><path d="M588 174L538 123L577 195Z" fill="#2e3440" stroke="#2e3440"/><path d="M485 132L467 97L435 125Z" fill="#434c5e" stroke="#434c5e"/><path d="M691 422L688 351L597 369Z" fill="#3f4758" stroke="#3f4758"/><path d="M721 306L671 285L672 321Z" fill="#343b49" stroke="#343b49"/><path d="M576 103L529 113L538 123Z" fill="#38404f" stroke="#38404f"/><path d="M538 123L529 113L485 132Z" fill="#38404f" stroke="#38404f"/><path d="M265 209L229 336L335 274Z" fill="#38404f" stroke="#38404f"/><path d="M284 183L265 209L306 198Z" fill="#363e4c" stroke="#363e4c"/><path d="M306 198L265 209L335 274Z" fill="#414a5b" stroke="#414a5b"/><path d="M318 126L306 198L400 165Z" fill="#3c4555" stroke="#3c4555"/><path d="M229 336L228 343L310 376Z" fill="#434c5e" stroke="#434c5e"/><path d="M529 113L467 97L485 132Z" fill="#3c4555" stroke="#3c4555"/><path d="M435 125L416 98L400 165Z" fill="#323946" stroke="#323946"/><path d="M562 548L568 470L527 505Z" fill="#303643" stroke="#303643"/><path d="M562 548L625 502L568 470Z" fill="#3c4555" stroke="#3c4555"/><path d="M604 457L676 447L591 379Z" fill="#3f4758" stroke="#3f4758"/><path d="M487 588L562 548L527 505Z" fill="#434c5e" stroke="#434c5e"/><path d="M422 88L416 98L435 125Z" fill="#38404f" stroke="#38404f"/><path d="M665 159L588 174L616 229Z" fill="#343b49" stroke="#343b49"/><path d="M588 174L576 103L538 123Z" fill="#363e4c" stroke="#363e4c"/><path d="M228 343L229 396L310 376Z" fill="#434c5e" stroke="#434c5e"/><path d="M274 449L325 534L370 501Z" fill="#3a4252" stroke="#3a4252"/><path d="M370 501L421 578L463 535Z" fill="#3f4758" stroke="#3f4758"/><path d="M463 535L487 588L527 505Z" fill="#38404f" stroke="#38404f"/><path d="M231 544L325 534L274 449Z" fill="#2e3440" stroke="#2e3440"/><path d="M221 480L274 449L261 435Z" fill="#323946" stroke="#323946"/><path d="M262 168L249 209L265 209Z" fill="#303643" stroke="#303643"/><path d="M265 209L196 260L229 336Z" fill="#38404f" stroke="#38404f"/><path d="M625 502L676 447L604 457Z" fill="#414a5b" stroke="#414a5b"/><path d="M228 343L215 345L229 396Z" fill="#3f4758" stroke="#3f4758"/><path d="M229 336L215 345L228 343Z" fill="#363e4c" stroke="#363e4c"/><path d="M196 260L215 345L229 336Z" fill="#3a4252" stroke="#3a4252"/><path d="M467 97L422 88L435 125Z" fill="#303643" stroke="#303643"/><path d="M364 101L318 126L400 165Z" fill="#343b49" stroke="#343b49"/><path d="M676 447L691 422L591 379Z" fill="#3c4555" stroke="#3c4555"/><path d="M386 585L421 578L370 501Z" fill="#38404f" stroke="#38404f"/><path d="M721 306L672 321L673 325Z" fill="#38404f" stroke="#38404f"/><path d="M671 285L687 212L616 229Z" fill="#323946" stroke="#323946"/><path d="M721 306L673 325L688 351Z" fill="#434c5e" stroke="#434c5e"/><path d="M364 101L400 165L416 98Z" fill="#3f4758" stroke="#3f4758"/><path d="M284 183L262 168L265 209Z" fill="#343b49" stroke="#343b49"/><path d="M393 64L364 101L416 98Z" fill="#343b49" stroke="#343b49"/><path d="M450 600L487 588L463 535Z" fill="#414a5b" stroke="#414a5b"/><path d="M318 126L284 145L306 198Z" fill="#3c4555" stroke="#3c4555"/><path d="M284 145L262 168L284 183Z" fill="#323946" stroke="#323946"/><path d="M699 267L687 212L671 285Z" fill="#303643" stroke="#303643"/><path d="M650 132L576 103L610 147Z" fill="#323946" stroke="#323946"/><path d="M610 147L576 103L588 174Z" fill="#38404f" stroke="#38404f"/><path d="M494 53L450 59L467 97Z" fill="#434c5e" stroke="#434c5e"/><path d="M467 97L450 59L422 88Z" fill="#3f4758" stroke="#3f4758"/><path d="M152 404L219 428L229 396Z" fill="#38404f" stroke="#38404f"/><path d="M229 396L219 428L261 435Z" fill="#363e4c" stroke="#363e4c"/><path d="M325 534L386 585L370 501Z" fill="#3f4758" stroke="#3f4758"/><path d="M421 578L450 600L463 535Z" fill="#414a5b" stroke="#414a5b"/><path d="M716 394L721 306L688 351Z" fill="#414a5b" stroke="#414a5b"/><path d="M699 267L745 240L687 212Z" fill="#343b49" stroke="#343b49"/><path d="M717 415L716 394L691 422Z" fill="#343b49" stroke="#343b49"/><path d="M691 422L716 394L688 351Z" fill="#434c5e" stroke="#434c5e"/><path d="M429 600L450 600L421 578Z" fill="#3a4252" stroke="#3a4252"/><path d="M450 600L485 600L487 588Z" fill="#3a4252" stroke="#3a4252"/><path d="M487 588L567 600L562 548Z" fill="#3c4555" stroke="#3c4555"/><path d="M386 585L429 600L421 578Z" fill="#414a5b" stroke="#414a5b"/><path d="M687 212L665 159L616 229Z" fill="#3a4252" stroke="#3a4252"/><path d="M665 159L663 156L610 147Z" fill="#3f4758" stroke="#3f4758"/><path d="M729 425L717 415L691 422Z" fill="#434c5e" stroke="#434c5e"/><path d="M781 384L756 276L721 306Z" fill="#303643" stroke="#303643"/><path d="M701 464L691 422L676 447Z" fill="#3a4252" stroke="#3a4252"/><path d="M680 521L670 507L663 549Z" fill="#343b49" stroke="#343b49"/><path d="M625 502L670 507L676 447Z" fill="#3c4555" stroke="#3c4555"/><path d="M663 549L625 502L641 585Z" fill="#3a4252" stroke="#3a4252"/><path d="M177 235L196 260L249 209Z" fill="#343b49" stroke="#343b49"/><path d="M249 209L196 260L265 209Z" fill="#343b49" stroke="#343b49"/><path d="M215 345L152 404L229 396Z" fill="#3c4555" stroke="#3c4555"/><path d="M318 126L299 111L284 145Z" fill="#38404f" stroke="#38404f"/><path d="M284 145L272 120L262 168Z" fill="#363e4c" stroke="#363e4c"/><path d="M262 168L229 152L249 209Z" fill="#343b49" stroke="#343b49"/><path d="M309 83L299 111L318 126Z" fill="#434c5e" stroke="#434c5e"/><path d="M309 83L318 126L364 101Z" fill="#363e4c" stroke="#363e4c"/><path d="M494 53L467 97L529 113Z" fill="#38404f" stroke="#38404f"/><path d="M422 88L393 64L416 98Z" fill="#3f4758" stroke="#3f4758"/><path d="M670 507L701 464L676 447Z" fill="#38404f" stroke="#38404f"/><path d="M663 156L650 132L610 147Z" fill="#343b49" stroke="#343b49"/><path d="M710 112L650 132L663 156Z" fill="#363e4c" stroke="#363e4c"/><path d="M450 59L393 64L422 88Z" fill="#3f4758" stroke="#3f4758"/><path d="M146 463L221 480L219 428Z" fill="#3a4252" stroke="#3a4252"/><path d="M219 428L221 480L261 435Z" fill="#363e4c" stroke="#363e4c"/><path d="M325 534L370 600L386 585Z" fill="#414a5b" stroke="#414a5b"/><path d="M314 600L370 600L325 534Z" fill="#414a5b" stroke="#414a5b"/><path d="M386 585L370 600L429 600Z" fill="#343b49" stroke="#343b49"/><path d="M583 69L529 113L576 103Z" fill="#3f4758" stroke="#3f4758"/><path d="M553 38L494 53L529 113Z" fill="#3a4252" stroke="#3a4252"/><path d="M450 59L400 26L393 64Z" fill="#38404f" stroke="#38404f"/><path d="M309 83L272 120L299 111Z" fill="#303643" stroke="#303643"/><path d="M299 111L272 120L284 145Z" fill="#3f4758" stroke="#3f4758"/><path d="M701 464L729 425L691 422Z" fill="#434c5e" stroke="#434c5e"/><path d="M717 415L729 425L716 394Z" fill="#38404f" stroke="#38404f"/><path d="M485 600L567 600L487 588Z" fill="#303643" stroke="#303643"/><path d="M670 507L691 526L701 464Z" fill="#3c4555" stroke="#3c4555"/><path d="M701 464L752 466L729 425Z" fill="#363e4c" stroke="#363e4c"/><path d="M663 549L670 507L625 502Z" fill="#3f4758" stroke="#3f4758"/><path d="M623 60L583 69L576 103Z" fill="#434c5e" stroke="#434c5e"/><path d="M326 33L309 83L364 101Z" fill="#3c4555" stroke="#3c4555"/><path d="M182 173L229 152L181 121Z" fill="#38404f" stroke="#38404f"/><path d="M272 120L229 152L262 168Z" fill="#363e4c" stroke="#363e4c"/><path d="M641 585L625 502L562 548Z" fill="#3a4252" stroke="#3a4252"/><path d="M567 600L591 600L562 548Z" fill="#323946" stroke="#323946"/><path d="M182 173L177 235L249 209Z" fill="#2e3440" stroke="#2e3440"/><path d="M141 363L152 404L215 345Z" fill="#2e3440" stroke="#2e3440"/><path d="M756 276L699 267L721 306Z" fill="#414a5b" stroke="#414a5b"/><path d="M756 276L745 240L699 267Z" fill="#323946" stroke="#323946"/><path d="M687 212L710 112L665 159Z" fill="#343b49" stroke="#343b49"/><path d="M665 159L710 112L663 156Z" fill="#434c5e" stroke="#434c5e"/><path d="M680 521L691 526L670 507Z" fill="#3c4555" stroke="#3c4555"/><path d="M663 549L691 526L680 521Z" fill="#434c5e" stroke="#434c5e"/><path d="M781 384L721 306L716 394Z" fill="#323946" stroke="#323946"/><path d="M591 600L604 600L562 548Z" fill="#3f4758" stroke="#3f4758"/><path d="M663 549L711 564L691 526Z" fill="#38404f" stroke="#38404f"/><path d="M268 578L314 600L325 534Z" fill="#3f4758" stroke="#3f4758"/><path d="M583 69L553 38L529 113Z" fill="#3c4555" stroke="#3c4555"/><path d="M425 0L400 26L450 59Z" fill="#3a4252" stroke="#3a4252"/><path d="M600 32L553 38L583 69Z" fill="#2e3440" stroke="#2e3440"/><path d="M604 600L641 585L562 548Z" fill="#3f4758" stroke="#3f4758"/><path d="M231 544L268 578L325 534Z" fill="#303643" stroke="#303643"/><path d="M230 553L231 544L173 541Z" fill="#434c5e" stroke="#434c5e"/><path d="M221 480L231 544L274 449Z" fill="#3a4252" stroke="#3a4252"/><path d="M425 0L450 59L494 53Z" fill="#414a5b" stroke="#414a5b"/><path d="M393 64L326 33L364 101Z" fill="#303643" stroke="#303643"/><path d="M141 363L215 345L130 306Z" fill="#363e4c" stroke="#363e4c"/><path d="M150 600L288 600L268 578Z" fill="#323946" stroke="#323946"/><path d="M268 578L288 600L314 600Z" fill="#3a4252" stroke="#3a4252"/><path d="M710 112L623 60L650 132Z" fill="#303643" stroke="#303643"/><path d="M650 132L623 60L576 103Z" fill="#343b49" stroke="#343b49"/><path d="M173 541L231 544L221 480Z" fill="#38404f" stroke="#38404f"/><path d="M231 544L230 553L268 578Z" fill="#323946" stroke="#323946"/><path d="M756 276L764 238L745 240Z" fill="#343b49" stroke="#343b49"/><path d="M788 161L710 112L687 212Z" fill="#323946" stroke="#323946"/><path d="M795 240L764 238L756 276Z" fill="#3c4555" stroke="#3c4555"/><path d="M130 306L215 345L196 260Z" fill="#414a5b" stroke="#414a5b"/><path d="M229 152L182 173L249 209Z" fill="#323946" stroke="#323946"/><path d="M128 245L130 306L196 260Z" fill="#3a4252" stroke="#3a4252"/><path d="M225 103L229 152L272 120Z" fill="#38404f" stroke="#38404f"/><path d="M691 526L752 466L701 464Z" fill="#2e3440" stroke="#2e3440"/><path d="M783 393L781 384L716 394Z" fill="#3c4555" stroke="#3c4555"/><path d="M769 503L752 466L691 526Z" fill="#3c4555" stroke="#3c4555"/><path d="M783 393L716 394L729 425Z" fill="#414a5b" stroke="#414a5b"/><path d="M604 600L649 600L641 585Z" fill="#2e3440" stroke="#2e3440"/><path d="M641 585L649 600L663 549Z" fill="#414a5b" stroke="#414a5b"/><path d="M400 26L326 33L393 64Z" fill="#323946" stroke="#323946"/><path d="M309 83L225 103L272 120Z" fill="#2e3440" stroke="#2e3440"/><path d="M215 26L225 103L309 83Z" fill="#38404f" stroke="#38404f"/><path d="M752 466L783 393L729 425Z" fill="#2e3440" stroke="#2e3440"/><path d="M831 316L795 240L756 276Z" fill="#38404f" stroke="#38404f"/><path d="M128 245L196 260L177 235Z" fill="#3a4252" stroke="#3a4252"/><path d="M89 391L152 404L141 363Z" fill="#2e3440" stroke="#2e3440"/><path d="M89 391L140 420L152 404Z" fill="#2e3440" stroke="#2e3440"/><path d="M152 404L140 420L219 428Z" fill="#3f4758" stroke="#3f4758"/><path d="M623 60L600 32L583 69Z" fill="#3a4252" stroke="#3a4252"/><path d="M541 0L425 0L494 53Z" fill="#363e4c" stroke="#363e4c"/><path d="M788 161L687 212L745 240Z" fill="#434c5e" stroke="#434c5e"/><path d="M609 0L606 0L600 32Z" fill="#2e3440" stroke="#2e3440"/><path d="M541 0L494 53L553 38Z" fill="#3c4555" stroke="#3c4555"/><path d="M400 26L344 0L326 33Z" fill="#363e4c" stroke="#363e4c"/><path d="M425 0L394 0L400 26Z" fill="#434c5e" stroke="#434c5e"/><path d="M140 420L146 463L219 428Z" fill="#3f4758" stroke="#3f4758"/><path d="M649 600L711 564L663 549Z" fill="#3f4758" stroke="#3f4758"/><path d="M752 466L823 447L783 393Z" fill="#434c5e" stroke="#434c5e"/><path d="M90 289L118 317L130 306Z" fill="#343b49" stroke="#343b49"/><path d="M130 306L118 317L141 363Z" fill="#2e3440" stroke="#2e3440"/><path d="M132 503L150 513L146 463Z" fill="#3f4758" stroke="#3f4758"/><path d="M580 0L541 0L553 38Z" fill="#343b49" stroke="#343b49"/><path d="M182 173L128 245L177 235Z" fill="#414a5b" stroke="#414a5b"/><path d="M115 152L128 245L182 173Z" fill="#3a4252" stroke="#3a4252"/><path d="M831 316L756 276L781 384Z" fill="#38404f" stroke="#38404f"/><path d="M764 238L788 161L745 240Z" fill="#3f4758" stroke="#3f4758"/><path d="M177 87L181 121L225 103Z" fill="#363e4c" stroke="#363e4c"/><path d="M225 103L181 121L229 152Z" fill="#3a4252" stroke="#3a4252"/><path d="M394 0L344 0L400 26Z" fill="#363e4c" stroke="#363e4c"/><path d="M326 33L215 26L309 83Z" fill="#414a5b" stroke="#414a5b"/><path d="M711 564L769 503L691 526Z" fill="#3c4555" stroke="#3c4555"/><path d="M606 0L580 0L600 32Z" fill="#2e3440" stroke="#2e3440"/><path d="M600 32L580 0L553 38Z" fill="#363e4c" stroke="#363e4c"/><path d="M150 513L173 541L221 480Z" fill="#303643" stroke="#303643"/><path d="M230 553L150 600L268 578Z" fill="#3a4252" stroke="#3a4252"/><path d="M132 503L146 463L119 493Z" fill="#2e3440" stroke="#2e3440"/><path d="M146 463L150 513L221 480Z" fill="#303643" stroke="#303643"/><path d="M181 121L151 145L182 173Z" fill="#2e3440" stroke="#2e3440"/><path d="M344 0L317 0L326 33Z" fill="#3c4555" stroke="#3c4555"/><path d="M181 121L162 92L151 145Z" fill="#3a4252" stroke="#3a4252"/><path d="M609 0L600 32L623 60Z" fill="#2e3440" stroke="#2e3440"/><path d="M727 33L609 0L623 60Z" fill="#3f4758" stroke="#3f4758"/><path d="M119 493L146 463L63 482Z" fill="#3f4758" stroke="#3f4758"/><path d="M150 513L138 557L173 541Z" fill="#3c4555" stroke="#3c4555"/><path d="M795 240L788 161L764 238Z" fill="#38404f" stroke="#38404f"/><path d="M710 112L727 33L623 60Z" fill="#434c5e" stroke="#434c5e"/><path d="M844 419L831 316L781 384Z" fill="#2e3440" stroke="#2e3440"/><path d="M795 240L827 224L788 161Z" fill="#303643" stroke="#303643"/><path d="M844 419L781 384L783 393Z" fill="#3f4758" stroke="#3f4758"/><path d="M90 287L90 289L130 306Z" fill="#323946" stroke="#323946"/><path d="M118 317L89 391L141 363Z" fill="#38404f" stroke="#38404f"/><path d="M90 287L130 306L128 245Z" fill="#3c4555" stroke="#3c4555"/><path d="M53 281L90 287L70 190Z" fill="#343b49" stroke="#343b49"/><path d="M215 26L177 87L225 103Z" fill="#303643" stroke="#303643"/><path d="M48 375L118 317L90 289Z" fill="#3a4252" stroke="#3a4252"/><path d="M48 375L89 391L118 317Z" fill="#343b49" stroke="#343b49"/><path d="M63 482L146 463L140 420Z" fill="#414a5b" stroke="#414a5b"/><path d="M132 503L138 557L150 513Z" fill="#3a4252" stroke="#3a4252"/><path d="M851 488L823 447L769 503Z" fill="#343b49" stroke="#343b49"/><path d="M769 503L823 447L752 466Z" fill="#363e4c" stroke="#363e4c"/><path d="M788 161L765 104L710 112Z" fill="#434c5e" stroke="#434c5e"/><path d="M160 0L162 92L177 87Z" fill="#434c5e" stroke="#434c5e"/><path d="M177 87L162 92L181 121Z" fill="#303643" stroke="#303643"/><path d="M151 145L115 152L182 173Z" fill="#323946" stroke="#323946"/><path d="M847 271L827 224L795 240Z" fill="#303643" stroke="#303643"/><path d="M807 130L774 99L765 104Z" fill="#2e3440" stroke="#2e3440"/><path d="M649 600L735 600L711 564Z" fill="#363e4c" stroke="#363e4c"/><path d="M711 564L755 600L769 503Z" fill="#3f4758" stroke="#3f4758"/><path d="M900 333L845 299L831 316Z" fill="#323946" stroke="#323946"/><path d="M831 316L847 271L795 240Z" fill="#2e3440" stroke="#2e3440"/><path d="M108 109L115 152L151 145Z" fill="#434c5e" stroke="#434c5e"/><path d="M807 130L765 104L788 161Z" fill="#2e3440" stroke="#2e3440"/><path d="M765 104L735 51L710 112Z" fill="#2e3440" stroke="#2e3440"/><path d="M119 493L138 557L132 503Z" fill="#2e3440" stroke="#2e3440"/><path d="M173 541L150 600L230 553Z" fill="#303643" stroke="#303643"/><path d="M845 299L847 271L831 316Z" fill="#3f4758" stroke="#3f4758"/><path d="M827 224L829 141L788 161Z" fill="#3f4758" stroke="#3f4758"/><path d="M224 0L215 26L326 33Z" fill="#38404f" stroke="#38404f"/><path d="M849 430L844 419L823 447Z" fill="#303643" stroke="#303643"/><path d="M823 447L844 419L783 393Z" fill="#363e4c" stroke="#363e4c"/><path d="M845 299L900 250L847 271Z" fill="#363e4c" stroke="#363e4c"/><path d="M774 99L735 51L765 104Z" fill="#3c4555" stroke="#3c4555"/><path d="M735 600L755 600L711 564Z" fill="#3c4555" stroke="#3c4555"/><path d="M847 271L844 219L827 224Z" fill="#434c5e" stroke="#434c5e"/><path d="M851 488L849 430L823 447Z" fill="#3a4252" stroke="#3a4252"/><path d="M900 396L900 333L831 316Z" fill="#323946" stroke="#323946"/><path d="M728 0L727 33L752 0Z" fill="#303643" stroke="#303643"/><path d="M735 51L727 33L710 112Z" fill="#3a4252" stroke="#3a4252"/><path d="M829 141L807 130L788 161Z" fill="#343b49" stroke="#343b49"/><path d="M784 42L727 33L735 51Z" fill="#3c4555" stroke="#3c4555"/><path d="M317 0L224 0L326 33Z" fill="#2e3440" stroke="#2e3440"/><path d="M88 59L108 109L162 92Z" fill="#434c5e" stroke="#434c5e"/><path d="M70 148L70 190L115 152Z" fill="#414a5b" stroke="#414a5b"/><path d="M755 600L815 535L769 503Z" fill="#2e3440" stroke="#2e3440"/><path d="M46 504L138 557L119 493Z" fill="#363e4c" stroke="#363e4c"/><path d="M116 600L150 600L138 557Z" fill="#3a4252" stroke="#3a4252"/><path d="M138 557L150 600L173 541Z" fill="#3a4252" stroke="#3a4252"/><path d="M70 190L90 287L128 245Z" fill="#323946" stroke="#323946"/><path d="M90 287L53 281L90 289Z" fill="#323946" stroke="#323946"/><path d="M89 391L51 421L140 420Z" fill="#2e3440" stroke="#2e3440"/><path d="M42 291L48 375L90 289Z" fill="#303643" stroke="#303643"/><path d="M108 109L151 145L162 92Z" fill="#434c5e" stroke="#434c5e"/><path d="M115 152L70 190L128 245Z" fill="#434c5e" stroke="#434c5e"/><path d="M844 219L829 141L827 224Z" fill="#2e3440" stroke="#2e3440"/><path d="M794 50L784 42L774 99Z" fill="#363e4c" stroke="#363e4c"/><path d="M180 0L177 87L215 26Z" fill="#343b49" stroke="#343b49"/><path d="M829 141L828 136L807 130Z" fill="#303643" stroke="#303643"/><path d="M48 375L51 421L89 391Z" fill="#323946" stroke="#323946"/><path d="M0 250L42 291L53 281Z" fill="#363e4c" stroke="#363e4c"/><path d="M53 281L42 291L90 289Z" fill="#3a4252" stroke="#3a4252"/><path d="M25 495L63 482L1 441Z" fill="#38404f" stroke="#38404f"/><path d="M815 535L851 488L769 503Z" fill="#3a4252" stroke="#3a4252"/><path d="M900 396L831 316L844 419Z" fill="#2e3440" stroke="#2e3440"/><path d="M51 421L63 482L140 420Z" fill="#434c5e" stroke="#434c5e"/><path d="M784 42L735 51L774 99Z" fill="#2e3440" stroke="#2e3440"/><path d="M727 33L728 0L609 0Z" fill="#363e4c" stroke="#363e4c"/><path d="M755 600L833 541L815 535Z" fill="#2e3440" stroke="#2e3440"/><path d="M815 535L833 541L851 488Z" fill="#3f4758" stroke="#3f4758"/><path d="M108 109L70 148L115 152Z" fill="#38404f" stroke="#38404f"/><path d="M70 190L33 217L53 281Z" fill="#343b49" stroke="#343b49"/><path d="M224 0L180 0L215 26Z" fill="#343b49" stroke="#343b49"/><path d="M108 109L12 105L70 148Z" fill="#434c5e" stroke="#434c5e"/><path d="M83 600L116 600L138 557Z" fill="#323946" stroke="#323946"/><path d="M794 50L774 99L816 69Z" fill="#434c5e" stroke="#434c5e"/><path d="M816 69L774 99L807 130Z" fill="#414a5b" stroke="#414a5b"/><path d="M900 396L844 419L900 413Z" fill="#2e3440" stroke="#2e3440"/><path d="M847 271L900 250L844 219Z" fill="#434c5e" stroke="#434c5e"/><path d="M844 219L900 163L829 141Z" fill="#414a5b" stroke="#414a5b"/><path d="M829 141L900 129L828 136Z" fill="#3a4252" stroke="#3a4252"/><path d="M0 204L33 217L0 162Z" fill="#3c4555" stroke="#3c4555"/><path d="M0 403L51 421L48 375Z" fill="#2e3440" stroke="#2e3440"/><path d="M784 42L752 0L727 33Z" fill="#434c5e" stroke="#434c5e"/><path d="M785 0L752 0L784 42Z" fill="#3a4252" stroke="#3a4252"/><path d="M828 136L816 69L807 130Z" fill="#3c4555" stroke="#3c4555"/><path d="M811 0L785 0L784 42Z" fill="#2e3440" stroke="#2e3440"/><path d="M900 129L816 69L828 136Z" fill="#323946" stroke="#323946"/><path d="M900 413L844 419L849 430Z" fill="#434c5e" stroke="#434c5e"/><path d="M900 413L849 430L900 462Z" fill="#3f4758" stroke="#3f4758"/><path d="M25 495L46 504L63 482Z" fill="#323946" stroke="#323946"/><path d="M63 482L46 504L119 493Z" fill="#343b49" stroke="#343b49"/><path d="M0 389L48 375L42 291Z" fill="#343b49" stroke="#343b49"/><path d="M900 462L849 430L851 488Z" fill="#38404f" stroke="#38404f"/><path d="M180 0L160 0L177 87Z" fill="#303643" stroke="#303643"/><path d="M900 333L900 250L845 299Z" fill="#363e4c" stroke="#363e4c"/><path d="M900 480L900 462L851 488Z" fill="#38404f" stroke="#38404f"/><path d="M900 250L900 203L844 219Z" fill="#2e3440" stroke="#2e3440"/><path d="M126 0L88 59L162 92Z" fill="#3c4555" stroke="#3c4555"/><path d="M0 204L0 250L33 217Z" fill="#38404f" stroke="#38404f"/><path d="M46 504L83 600L138 557Z" fill="#3c4555" stroke="#3c4555"/><path d="M0 250L0 389L42 291Z" fill="#303643" stroke="#303643"/><path d="M46 504L47 600L83 600Z" fill="#3f4758" stroke="#3f4758"/><path d="M1 441L63 482L51 421Z" fill="#414a5b" stroke="#414a5b"/><path d="M833 541L900 480L851 488Z" fill="#3a4252" stroke="#3a4252"/><path d="M0 389L0 403L48 375Z" fill="#38404f" stroke="#38404f"/><path d="M811 0L784 42L794 50Z" fill="#2e3440" stroke="#2e3440"/><path d="M811 0L794 50L816 69Z" fill="#414a5b" stroke="#414a5b"/><path d="M33 217L70 190L0 162Z" fill="#343b49" stroke="#343b49"/><path d="M33 217L0 250L53 281Z" fill="#3f4758" stroke="#3f4758"/><path d="M0 403L0 426L51 421Z" fill="#323946" stroke="#323946"/><path d="M0 426L1 441L51 421Z" fill="#363e4c" stroke="#363e4c"/><path d="M160 0L126 0L162 92Z" fill="#3a4252" stroke="#3a4252"/><path d="M900 203L900 163L844 219Z" fill="#343b49" stroke="#343b49"/><path d="M0 162L70 190L70 148Z" fill="#3c4555" stroke="#3c4555"/><path d="M900 6L811 0L816 69Z" fill="#363e4c" stroke="#363e4c"/><path d="M126 0L87 22L88 59Z" fill="#434c5e" stroke="#434c5e"/><path d="M0 142L0 162L70 148Z" fill="#303643" stroke="#303643"/><path d="M900 163L900 129L829 141Z" fill="#323946" stroke="#323946"/><path d="M0 142L70 148L12 105Z" fill="#3f4758" stroke="#3f4758"/><path d="M755 600L871 600L833 541Z" fill="#3a4252" stroke="#3a4252"/><path d="M833 541L900 581L900 480Z" fill="#38404f" stroke="#38404f"/><path d="M1 441L0 507L25 495Z" fill="#3c4555" stroke="#3c4555"/><path d="M25 495L0 507L46 504Z" fill="#2e3440" stroke="#2e3440"/><path d="M0 426L0 507L1 441Z" fill="#2e3440" stroke="#2e3440"/><path d="M0 573L47 600L46 504Z" fill="#3a4252" stroke="#3a4252"/><path d="M12 105L108 109L88 59Z" fill="#303643" stroke="#303643"/><path d="M0 97L12 105L88 59Z" fill="#3f4758" stroke="#3f4758"/><path d="M871 600L900 581L833 541Z" fill="#3c4555" stroke="#3c4555"/><path d="M871 600L900 600L900 581Z" fill="#434c5e" stroke="#434c5e"/><path d="M57 5L0 97L88 59Z" fill="#414a5b" stroke="#414a5b"/><path d="M12 105L0 97L0 142Z" fill="#2e3440" stroke="#2e3440"/><path d="M0 507L0 573L46 504Z" fill="#363e4c" stroke="#363e4c"/><path d="M126 0L57 5L87 22Z" fill="#3a4252" stroke="#3a4252"/><path d="M87 22L57 5L88 59Z" fill="#434c5e" stroke="#434c5e"/><path d="M0 573L0 600L47 600Z" fill="#3f4758" stroke="#3f4758"/><path d="M900 129L900 6L816 69Z" fill="#434c5e" stroke="#434c5e"/><path d="M126 0L21 0L57 5Z" fill="#434c5e" stroke="#434c5e"/><path d="M57 5L0 10L0 97Z" fill="#3f4758" stroke="#3f4758"/><path d="M900 6L900 0L811 0Z" fill="#303643" stroke="#303643"/><path d="M21 0L0 10L57 5Z" fill="#3c4555" stroke="#3c4555"/><path d="M21 0L0 0L0 10Z" fill="#303643" stroke="#303643"/></g></svg>