<svg width="900" height="675" xmlns="http://www.w3.org/2000/svg"><g stroke-linejoin="bevel"><path d="m464 336-16 44 41-24z" fill="#262626" stroke="#262626"/><path d="m448 380 44 27-3-51z" fill="#2e2e2e" stroke="#2e2e2e"/><path d="m464 336-53 12 37 32z" fill="#282828" stroke="#282828"/><path d="m492 407 35-39-38-12z" fill="#2d2d2d" stroke="#2d2d2d"/><path d="m489 356 1-68-26 48z" fill="#272727" stroke="#272727"/><path d="m441 292-9 11 32 33z" fill="#2e2e2e" stroke="#2e2e2e"/><path d="m464 336-32-33-21 45z" fill="#262626" stroke="#262626"/><path d="m490 288-49 4 23 44z" fill="#2b2b2b" stroke="#2b2b2b"/><path d="m549 318-59-30-1 68z" fill="#2e2e2e" stroke="#2e2e2e"/><path d="m490 288-3-5-46 9zM358 384l30 10 23-46z" fill="#262626" stroke="#262626"/><path d="m411 348-23 46 60-14z" fill="#2b2b2b" stroke="#2b2b2b"/><path d="m448 380 28 73 16-46z" fill="#262626" stroke="#262626"/><path d="m476 453 47-32-31-14z" fill="#2e2e2e" stroke="#2e2e2e"/><path d="m492 407 31 14 4-53z" fill="#282828" stroke="#282828"/><path d="m363 322 21 5 2-69z" fill="#292929" stroke="#292929"/><path d="m432 303-48 24 27 21z" fill="#2e2e2e" stroke="#2e2e2e"/><path d="m523 421 26-29-22-24z" fill="#2f2f2f" stroke="#2f2f2f"/><path d="m527 368 22-50-60 38z" fill="#2b2b2b" stroke="#2b2b2b"/><path d="m389 445 87 8-28-73z" fill="#282828" stroke="#282828"/><path d="m549 392 9-30-31 6z" fill="#272727" stroke="#272727"/><path d="m490 288 71-47-74 42z" fill="#262626" stroke="#262626"/><path d="m558 362-9-44-22 50z" fill="#303030" stroke="#303030"/><path d="m386 258-2 69 48-24z" fill="#282828" stroke="#282828"/><path d="m384 327-26 57 53-36z" fill="#2c2c2c" stroke="#2c2c2c"/><path d="m348 339 10 45 26-57z" fill="#2b2b2b" stroke="#2b2b2b"/><path d="m388 394 1 51 59-65z" fill="#2c2c2c" stroke="#2c2c2c"/><path d="m503 486 41-47-21-18z" fill="#2d2d2d" stroke="#2d2d2d"/><path d="m523 421 21 18 5-47z" fill="#2e2e2e" stroke="#2e2e2e"/><path d="m599 364-10-15-31 13z" fill="#2c2c2c" stroke="#2c2c2c"/><path d="m343 423 46 22-1-51z" fill="#2e2e2e" stroke="#2e2e2e"/><path d="m363 322-15 17 36-12z" fill="#282828" stroke="#282828"/><path d="m589 408-31-46-9 30z" fill="#262626" stroke="#262626"/><path d="m558 362 31-13-40-31z" fill="#2b2b2b" stroke="#2b2b2b"/><path d="m389 211-3 47 55 34z" fill="#2e2e2e" stroke="#2e2e2e"/><path d="m441 292-55-34 46 45z" fill="#2d2d2d" stroke="#2d2d2d"/><path d="m363 322-39-32 24 49z" fill="#2a2a2a" stroke="#2a2a2a"/><path d="m487 495 16-9-27-33z" fill="#282828" stroke="#282828"/><path d="m476 453 27 33 20-65z" fill="#2f2f2f" stroke="#2f2f2f"/><path d="m606 410-17-2 54 52z" fill="#2c2c2c" stroke="#2c2c2c"/><path d="m544 439 45-31-40-16zM589 408l10-44-41-2z" fill="#292929" stroke="#292929"/><path d="m401 489 86 6-11-42z" fill="#2f2f2f" stroke="#2f2f2f"/><path d="m328 419 15 4 15-39z" fill="#292929" stroke="#292929"/><path d="m358 384-15 39 45-29z" fill="#303030" stroke="#303030"/><path d="m389 445 12 44 75-36z" fill="#272727" stroke="#272727"/><path d="m397 494 4-5-13 10z" fill="#2b2b2b" stroke="#2b2b2b"/><path d="m589 408 18-25-8-19zM269 384l59 35 30-35z" fill="#303030" stroke="#303030"/><path d="m388 499 13-10-12-44z" fill="#2f2f2f" stroke="#2f2f2f"/><path d="m388 499 1-54-32 71z" fill="#2a2a2a" stroke="#2a2a2a"/><path d="m401 489 51 46 35-40z" fill="#2f2f2f" stroke="#2f2f2f"/><path d="m643 460-54-52-45 31z" fill="#2d2d2d" stroke="#2d2d2d"/><path d="m589 408 17 2 1-27z" fill="#2a2a2a" stroke="#2a2a2a"/><path d="m635 244-74-3-12 77z" fill="#303030" stroke="#303030"/><path d="m549 318 12-77-71 47z" fill="#272727" stroke="#272727"/><path d="m389 211-27 17 24 30z" fill="#2f2f2f" stroke="#2f2f2f"/><path d="m577 223-16 18 74 3z" fill="#303030" stroke="#303030"/><path d="m549 318 40 31 46-105z" fill="#2c2c2c" stroke="#2c2c2c"/><path d="m386 258-62 32 39 32z" fill="#303030" stroke="#303030"/><path d="m348 339-49-7 59 52z" fill="#2a2a2a" stroke="#2a2a2a"/><path d="m382 517 6-18-31 17z" fill="#2f2f2f" stroke="#2f2f2f"/><path d="m452 535 46-11-11-29z" fill="#272727" stroke="#272727"/><path d="m487 495 11 29 5-38z" fill="#303030" stroke="#303030"/><path d="m503 486 35 26 6-73zM452 535l-51-46-4 5z" fill="#2c2c2c" stroke="#2c2c2c"/><path d="m498 524 40-12-35-26z" fill="#303030" stroke="#303030"/><path d="m389 211 52 81 2-110z" fill="#2d2d2d" stroke="#2d2d2d"/><path d="m386 258-24-30-38 62z" fill="#262626" stroke="#262626"/><path d="m443 182-2 110 46-9z" fill="#2a2a2a" stroke="#2a2a2a"/><path d="m324 290-25 42 49 7z" fill="#272727" stroke="#272727"/><path d="m382 517 70 18-55-41zM561 241l-68-53-6 95z" fill="#2b2b2b" stroke="#2b2b2b"/><path d="m357 516 32-71-46-22z" fill="#282828" stroke="#282828"/><path d="m388 499-6 18 15-23z" fill="#2e2e2e" stroke="#2e2e2e"/><path d="m649 339-60 10 10 15z" fill="#2b2b2b" stroke="#2b2b2b"/><path d="m561 241-34-62-34 9z" fill="#262626" stroke="#262626"/><path d="m500 144-17 39 10 5z" fill="#272727" stroke="#272727"/><path d="m493 188-10-5 4 100z" fill="#262626" stroke="#262626"/><path d="m389 211-28 3 1 14z" fill="#2b2b2b" stroke="#2b2b2b"/><path d="m311 255-11 23 24 12z" fill="#2f2f2f" stroke="#2f2f2f"/><path d="m324 290-24-12-1 54z" fill="#292929" stroke="#292929"/><path d="m362 191-1 23 28-3zM483 183l-40-1 44 101z" fill="#282828" stroke="#282828"/><path d="m498 524 37 5 3-17z" fill="#2d2d2d" stroke="#2d2d2d"/><path d="m538 512 19 15-13-88z" fill="#272727" stroke="#272727"/><path d="m518 553 17-24-37-5zM311 255l13 35 38-62z" fill="#262626" stroke="#262626"/><path d="m659 375-10-36-42 44z" fill="#2f2f2f" stroke="#2f2f2f"/><path d="m607 383 42-44-50 25z" fill="#2f2f2f" stroke="#2f2f2f"/><path d="m659 375-52 8-1 27z" fill="#2c2c2c" stroke="#2c2c2c"/><path d="m307 227 4 28 51-27z" fill="#262626" stroke="#262626"/><path d="m296 482 47-59-15-4z" fill="#2d2d2d" stroke="#2d2d2d"/><path d="m296 482 61 34-14-93z" fill="#282828" stroke="#282828"/><path d="m382 517 29 47 41-29z" fill="#2b2b2b" stroke="#2b2b2b"/><path d="m535 529 22-2-19-15z" fill="#2f2f2f" stroke="#2f2f2f"/><path d="M269 384h89l-59-52z" fill="#282828" stroke="#282828"/><path d="m269 384 14 34 45 1z" fill="#2d2d2d" stroke="#2d2d2d"/><path d="m577 223-50-44 34 62z" fill="#2f2f2f" stroke="#2f2f2f"/><path d="m483 183-9-44-31 43z" fill="#303030" stroke="#303030"/><path d="m684 426-25-51-53 35z" fill="#262626" stroke="#262626"/><path d="m234 390 35-6-43-60z" fill="#292929" stroke="#292929"/><path d="M362 159v32l27 20z" fill="#2d2d2d" stroke="#2d2d2d"/><path d="m361 214-54 13 55 1z" fill="#292929" stroke="#292929"/><path d="m461 573 37-49-46 11z" fill="#2a2a2a" stroke="#2a2a2a"/><path d="m461 573 57-20-20-29z" fill="#282828" stroke="#282828"/><path d="m535 529-6 35 28-37z" fill="#292929" stroke="#292929"/><path d="m557 527 86-67-99-21z" fill="#2d2d2d" stroke="#2d2d2d"/><path d="M591 192h-8l-6 31z" fill="#2b2b2b" stroke="#2b2b2b"/><path d="m577 223 6-31-56-13z" fill="#2f2f2f" stroke="#2f2f2f"/><path d="m313 192-6 35 54-13z" fill="#303030" stroke="#303030"/><path d="m311 255-19-12 8 35z" fill="#282828" stroke="#282828"/><path d="m300 278-74 46 73 8z" fill="#262626" stroke="#262626"/><path d="m667 253-32-9 14 95z" fill="#282828" stroke="#282828"/><path d="m649 339-14-95-46 105z" fill="#2f2f2f" stroke="#2f2f2f"/><path d="m248 442 48 40-13-64z" fill="#282828" stroke="#282828"/><path d="m283 418 13 64 32-63z" fill="#2d2d2d" stroke="#2d2d2d"/><path d="m307 227-15 16 19 12z" fill="#303030" stroke="#303030"/><path d="m677 350-28-11 10 36z" fill="#262626" stroke="#262626"/><path d="m677 350-4-10-24-1z" fill="#2c2c2c" stroke="#2c2c2c"/><path d="m365 558 17-41-25-1z" fill="#292929" stroke="#292929"/><path d="m365 558 46 6-29-47z" fill="#2f2f2f" stroke="#2f2f2f"/><path d="m631 226-40-34-14 31z" fill="#2b2b2b" stroke="#2b2b2b"/><path d="m551 142-51 2 27 35z" fill="#303030" stroke="#303030"/><path d="m411 564 50 9-9-38z" fill="#292929" stroke="#292929"/><path d="m718 383-41-33-18 25zM667 253l-36-27 4 18z" fill="#2d2d2d" stroke="#2d2d2d"/><path d="m514 583 15-19-11-11z" fill="#2f2f2f" stroke="#2f2f2f"/><path d="m518 553 11 11 6-35z" fill="#262626" stroke="#262626"/><path d="m557 527 78-8 8-59z" fill="#292929" stroke="#292929"/><path d="m296 482 23 35 38-1z" fill="#2b2b2b" stroke="#2b2b2b"/><path d="m667 253-18 86 43-37z" fill="#272727" stroke="#272727"/><path d="m635 244-4-18-54-3z" fill="#282828" stroke="#282828"/><path d="m584 175-57 4 56 13z" fill="#2c2c2c" stroke="#2c2c2c"/><path d="m527 179-27-35-7 44z" fill="#2b2b2b" stroke="#2b2b2b"/><path d="m362 159-17 14 17 18z" fill="#292929" stroke="#292929"/><path d="m307 227-32 22 17-6z" fill="#282828" stroke="#282828"/><path d="m292 243-17 6 25 29zM319 517l46 41-8-42z" fill="#292929" stroke="#292929"/><path d="m440 622 53-16-32-33z" fill="#262626" stroke="#262626"/><path d="m618 165-34 10 7 17z" fill="#2f2f2f" stroke="#2f2f2f"/><path d="m591 192-7-17-1 17z" fill="#292929" stroke="#292929"/><path d="m529 564 46-11-18-26z" fill="#272727" stroke="#272727"/><path d="m500 144-26-5 9 44z" fill="#2f2f2f" stroke="#2f2f2f"/><path d="m362 191-49 1 48 22z" fill="#292929" stroke="#292929"/><path d="m307 227 6-35-38 57z" fill="#2e2e2e" stroke="#2e2e2e"/><path d="m362 159 27 52 54-29z" fill="#2a2a2a" stroke="#2a2a2a"/><path d="m474 139-112 20 81 23zM286 104l27 88 32-19z" fill="#2e2e2e" stroke="#2e2e2e"/><path d="m345 173-32 19 49-1z" fill="#2e2e2e" stroke="#2e2e2e"/><path d="m461 573 53 10 4-30z" fill="#272727" stroke="#272727"/><path d="m529 564 8 42 38-53z" fill="#2e2e2e" stroke="#2e2e2e"/><path d="m493 606 21-23-53-10z" fill="#292929" stroke="#292929"/><path d="m697 423-13 3 35 19z" fill="#2b2b2b" stroke="#2b2b2b"/><path d="m643 460 41-34-78-16z" fill="#282828" stroke="#282828"/><path d="m692 302-43 37 24 1z" fill="#303030" stroke="#303030"/><path d="m631 226-13-61-27 27z" fill="#282828" stroke="#282828"/><path d="m234 390 14 52 35-24z" fill="#303030" stroke="#303030"/><path d="m296 482 10 53 13-18z" fill="#272727" stroke="#272727"/><path d="m234 390 49 28-14-34z" fill="#2f2f2f" stroke="#2f2f2f"/><path d="m226 324 43 60 30-52z" fill="#272727" stroke="#272727"/><path d="m500 144-24-15-2 10z" fill="#2f2f2f" stroke="#2f2f2f"/><path d="M474 139 360 92l2 67z" fill="#282828" stroke="#282828"/><path d="m475 87 1 42 64-36z" fill="#2c2c2c" stroke="#2c2c2c"/><path d="m575 553 60-34-78 8z" fill="#272727" stroke="#272727"/><path d="m718 383-26-81-15 48z" fill="#262626" stroke="#262626"/><path d="m677 350 15-48-19 38z" fill="#2c2c2c" stroke="#2c2c2c"/><path d="m228 510 78 25-10-53z" fill="#262626" stroke="#262626"/><path d="m319 517-13 18 59 23zM609 125l-58 17 33 33z" fill="#2c2c2c" stroke="#2c2c2c"/><path d="m584 175-33-33-24 37z" fill="#2f2f2f" stroke="#2f2f2f"/><path d="m195 390 50 59 3-7z" fill="#2c2c2c" stroke="#2c2c2c"/><path d="m248 442-3 7 51 33z" fill="#303030" stroke="#303030"/><path d="m678 496 6-70-41 34z" fill="#272727" stroke="#272727"/><path d="m684 426 13-3-38-48z" fill="#282828" stroke="#282828"/><path d="m665 545-16-29-14 3z" fill="#2f2f2f" stroke="#2f2f2f"/><path d="m635 519 14-3-6-56z" fill="#292929" stroke="#292929"/><path d="m222 273 4 51 74-46z" fill="#2f2f2f" stroke="#2f2f2f"/><path d="m696 261-3 10 29-12z" fill="#2c2c2c" stroke="#2c2c2c"/><path d="m692 302 1-31-26-18zM631 153l-13 12 13 61z" fill="#262626" stroke="#262626"/><path d="m440 622 21-49-50-9z" fill="#2c2c2c" stroke="#2c2c2c"/><path d="m514 583 23 23-8-42z" fill="#262626" stroke="#262626"/><path d="m650 600 15-55-30-26z" fill="#272727" stroke="#272727"/><path d="m619 160-1 5 13-12z" fill="#292929" stroke="#292929"/><path d="m334 582 60 18-29-42z" fill="#303030" stroke="#303030"/><path d="m365 558 29 42 17-36z" fill="#262626" stroke="#262626"/><path d="m722 259-29 12-1 31z" fill="#2a2a2a" stroke="#2a2a2a"/><path d="m693 271 3-10-29-8z" fill="#2c2c2c" stroke="#2c2c2c"/><path d="m649 516 29-20-35-36zM631 153v73l62-22z" fill="#2a2a2a" stroke="#2a2a2a"/><path d="m618 165 1-5-35 15z" fill="#2e2e2e" stroke="#2e2e2e"/><path d="m719 445-1-62-21 40z" fill="#2b2b2b" stroke="#2b2b2b"/><path d="m697 423 21-40-59-8z" fill="#282828" stroke="#282828"/><path d="M493 606h44l-23-23z" fill="#2d2d2d" stroke="#2d2d2d"/><path d="m649 516 30-6-1-14zM298 601l36-19-28-47z" fill="#2f2f2f" stroke="#2f2f2f"/><path d="m306 535 28 47 31-24z" fill="#2a2a2a" stroke="#2a2a2a"/><path d="m210 218 12 55 53-24z" fill="#303030" stroke="#303030"/><path d="m275 249-53 24 78 5z" fill="#303030" stroke="#303030"/><path d="m665 545 14-35-30 6z" fill="#292929" stroke="#292929"/><path d="m701 489 18-44-35-19z" fill="#282828" stroke="#282828"/><path d="m402 675 38-53-46-22z" fill="#292929" stroke="#292929"/><path d="m394 600 46 22-29-58z" fill="#292929" stroke="#292929"/><path d="m551 674 32-23-46-45z" fill="#2b2b2b" stroke="#2b2b2b"/><path d="m222 273-15 32 19 19z" fill="#2f2f2f" stroke="#2f2f2f"/><path d="m190 361 5 29h39z" fill="#2c2c2c" stroke="#2c2c2c"/><path d="M234 390h-39l53 52z" fill="#2d2d2d" stroke="#2d2d2d"/><path d="m693 204-62 22 36 27z" fill="#292929" stroke="#292929"/><path d="m619 160-10-35-25 50z" fill="#2f2f2f" stroke="#2f2f2f"/><path d="m540 93-64 36 24 15zM701 489l-17-63-6 70z" fill="#303030" stroke="#303030"/><path d="m679 510 22-21-23 7z" fill="#272727" stroke="#272727"/><path d="m185 239 22 38 15-4z" fill="#262626" stroke="#262626"/><path d="m222 273-15 4v28z" fill="#303030" stroke="#303030"/><path d="m190 361 36-37-39 10z" fill="#2e2e2e" stroke="#2e2e2e"/><path d="m190 361 44 29-8-66z" fill="#292929" stroke="#292929"/><path d="m245 449-17 61 68-28z" fill="#2e2e2e" stroke="#2e2e2e"/><path d="m650 600-15-81-60 34z" fill="#2a2a2a" stroke="#2a2a2a"/><path d="m706 573 27-89-32 5z" fill="#2f2f2f" stroke="#2f2f2f"/><path d="m540 93-40 51 51-2z" fill="#2a2a2a" stroke="#2a2a2a"/><path d="M476 129 360 92l114 47z" fill="#2b2b2b" stroke="#2b2b2b"/><path d="m187 334 39-10-19-19z" fill="#303030" stroke="#303030"/><path d="m631 153-22-28 10 35z" fill="#2b2b2b" stroke="#2b2b2b"/><path d="m746 260-24-1-30 43z" fill="#2d2d2d" stroke="#2d2d2d"/><path d="m706 214-13-10-26 49zM631 153l5-47-27 19z" fill="#2c2c2c" stroke="#2c2c2c"/><path d="m746 260-54 42 74 67z" fill="#2f2f2f" stroke="#2f2f2f"/><path d="m706 214-39 39 29 8z" fill="#292929" stroke="#292929"/><path d="m609 125-69-32 11 49z" fill="#2e2e2e" stroke="#2e2e2e"/><path d="m178 252 9 82 20-29z" fill="#272727" stroke="#272727"/><path d="m176 488 52 22 17-61z" fill="#2b2b2b" stroke="#2b2b2b"/><path d="m733 484-1-37-13-2z" fill="#272727" stroke="#272727"/><path d="m719 445 13 2-14-64z" fill="#272727" stroke="#272727"/><path d="m733 484-14-39-18 44z" fill="#262626" stroke="#262626"/><path d="m722 259-16-45-10 47z" fill="#2d2d2d" stroke="#2d2d2d"/><path d="m693 204-36-80-26 29z" fill="#262626" stroke="#262626"/><path d="m405 58-45 34 116 37z" fill="#2b2b2b" stroke="#2b2b2b"/><path d="m362 159-21-71 4 85z" fill="#2a2a2a" stroke="#2a2a2a"/><path d="m313 192-103 26 65 31z" fill="#2f2f2f" stroke="#2f2f2f"/><path d="m194 195 16 23 103-26z" fill="#2b2b2b" stroke="#2b2b2b"/><path d="m207 277-29-25 29 53z" fill="#2c2c2c" stroke="#2c2c2c"/><path d="m242 598 56 3 8-66z" fill="#2a2a2a" stroke="#2a2a2a"/><path d="m334 582 14 65 46-47z" fill="#282828" stroke="#282828"/><path d="m706 573-5-84-22 21z" fill="#2d2d2d" stroke="#2d2d2d"/><path d="m766 369-74-67 26 81z" fill="#2e2e2e" stroke="#2e2e2e"/><path d="m722 259 14-29-30-16z" fill="#272727" stroke="#272727"/><path d="m766 369-48 14 47 57z" fill="#2f2f2f" stroke="#2f2f2f"/><path d="m190 361-21 49 26-20z" fill="#262626" stroke="#262626"/><path d="m195 390-26 20 76 39zM139 345l30 65 21-49z" fill="#2f2f2f" stroke="#2f2f2f"/><path d="m139 345 51 16-3-27z" fill="#2d2d2d" stroke="#2d2d2d"/><path d="m356 75-15 13 19 4z" fill="#282828" stroke="#282828"/><path d="m360 92-19-4 21 71z" fill="#303030" stroke="#303030"/><path d="m746 260-10-30-14 29z" fill="#282828" stroke="#282828"/><path d="m664 103-7 21 81 10zM765 440l-47-57 14 64z" fill="#2b2b2b" stroke="#2b2b2b"/><path d="m583 651-8-98-38 53z" fill="#2e2e2e" stroke="#2e2e2e"/><path d="m583 651 67-51-75-47z" fill="#303030" stroke="#303030"/><path d="m665 545 41 28-27-63z" fill="#292929" stroke="#292929"/><path d="m173 204 12 35 25-21z" fill="#2c2c2c" stroke="#2c2c2c"/><path d="m210 218-25 21 37 34z" fill="#2b2b2b" stroke="#2b2b2b"/><path d="m657 124 36 80 45-70zM609 125l11-60-80 28z" fill="#272727" stroke="#272727"/><path d="m650 600 30-22-15-33z" fill="#292929" stroke="#292929"/><path d="m405 58-49 17 4 17z" fill="#303030" stroke="#303030"/><path d="m405 58 71 71-1-42z" fill="#282828" stroke="#282828"/><path d="m185 239-7 13 29 25z" fill="#2c2c2c" stroke="#2c2c2c"/><path d="m657 124-21-18-5 47z" fill="#282828" stroke="#282828"/><path d="m298 601 50 46-14-65z" fill="#2a2a2a" stroke="#2a2a2a"/><path d="m528 675 9-69h-44z" fill="#272727" stroke="#272727"/><path d="m457 52-52 6 70 29z" fill="#303030" stroke="#303030"/><path d="m457 52 18 35 22-55z" fill="#2a2a2a" stroke="#2a2a2a"/><path d="m497 32-22 55 65 6z" fill="#292929" stroke="#292929"/><path d="m778 436-13 4 22 9z" fill="#2e2e2e" stroke="#2e2e2e"/><path d="m733 484 32-44-33 7z" fill="#262626" stroke="#262626"/><path d="m300 85-14 19 55-16zM341 88l-55 16 59 69z" fill="#282828" stroke="#282828"/><path d="m476 675 17-69-53 16z" fill="#262626" stroke="#262626"/><path d="m699 607 7-34-26 5z" fill="#292929" stroke="#292929"/><path d="M402 675h74l-36-53z" fill="#282828" stroke="#282828"/><path d="m169 410 7 78 69-39z" fill="#2b2b2b" stroke="#2b2b2b"/><path d="m228 510 14 88 64-63z" fill="#262626" stroke="#262626"/><path d="m176 488 14 31 38-9z" fill="#282828" stroke="#282828"/><path d="m298 601-16 42 66 4z" fill="#2f2f2f" stroke="#2f2f2f"/><path d="m195 132-1 63 119-3z" fill="#282828" stroke="#282828"/><path d="m185 239-12-35 5 48z" fill="#272727" stroke="#272727"/><path d="m348 647 54 28-8-75z" fill="#2b2b2b" stroke="#2b2b2b"/><path d="M476 675h52l-35-69z" fill="#272727" stroke="#272727"/><path d="m307 49-7 36 41 3z" fill="#282828" stroke="#282828"/><path d="m168 189 5 15 21-9z" fill="#2c2c2c" stroke="#2c2c2c"/><path d="m307 49 34 39 15-13z" fill="#2f2f2f" stroke="#2f2f2f"/><path d="m699 607-19-29-30 22z" fill="#272727" stroke="#272727"/><path d="m680 578 26-5-41-28z" fill="#303030" stroke="#303030"/><path d="m787 449-22-9-32 44z" fill="#2c2c2c" stroke="#2c2c2c"/><path d="m765 440 13-4-12-67z" fill="#292929" stroke="#292929"/><path d="m457 52-55-9 3 15z" fill="#272727" stroke="#272727"/><path d="m405 58-3-15-46 32z" fill="#2f2f2f" stroke="#2f2f2f"/><path d="m528 675 23-1-14-68z" fill="#2a2a2a" stroke="#2a2a2a"/><path d="m682 656 17-49-49-7z" fill="#2b2b2b" stroke="#2b2b2b"/><path d="m212 576 30 22-14-88z" fill="#282828" stroke="#282828"/><path d="m348 647 17 28h37z" fill="#262626" stroke="#262626"/><path d="m125 324 62 10-9-82z" fill="#2a2a2a" stroke="#2a2a2a"/><path d="m125 324 14 21 48-11zM169 410l-31 32 38 46zM657 124l7-21-28 3z" fill="#2b2b2b" stroke="#2b2b2b"/><path d="m560 0-63 32 43 61z" fill="#2f2f2f" stroke="#2f2f2f"/><path d="m738 134-45 70 58-63z" fill="#292929" stroke="#292929"/><path d="m242 598 29 28 27-25z" fill="#262626" stroke="#262626"/><path d="M335 675h30l-17-28z" fill="#2b2b2b" stroke="#2b2b2b"/><path d="m620 65-11 60 27-19z" fill="#262626" stroke="#262626"/><path d="M457 52 421 0l-19 43z" fill="#2f2f2f" stroke="#2f2f2f"/><path d="m168 189 26 6-13-58z" fill="#292929" stroke="#292929"/><path d="m194 195-21 9 37 14z" fill="#272727" stroke="#272727"/><path d="m273 675 9-32-11-17z" fill="#303030" stroke="#303030"/><path d="m190 519 22 57 16-66z" fill="#292929" stroke="#292929"/><path d="m198 572 14 4-22-57z" fill="#262626" stroke="#262626"/><path d="M528 675h46l-23-1z" fill="#2d2d2d" stroke="#2d2d2d"/><path d="m551 674 23 1 9-24z" fill="#2c2c2c" stroke="#2c2c2c"/><path d="m784 546 3-97-54 35z" fill="#2d2d2d" stroke="#2d2d2d"/><path d="m810 349-2-16-42 36z" fill="#262626" stroke="#262626"/><path d="m766 369 24-92-44-17z" fill="#303030" stroke="#303030"/><path d="m664 103-44-38 16 41z" fill="#2b2b2b" stroke="#2b2b2b"/><path d="m497 32-27-6-13 26z" fill="#303030" stroke="#303030"/><path d="m219 615 52 11-29-28z" fill="#2b2b2b" stroke="#2b2b2b"/><path d="m271 626 11 17 16-42z" fill="#2e2e2e" stroke="#2e2e2e"/><path d="m808 333-18-56-24 92zM746 260l46-15-56-15z" fill="#2d2d2d" stroke="#2d2d2d"/><path d="m751 141-58 63 13 10z" fill="#282828" stroke="#282828"/><path d="m89 403 49 39 31-32z" fill="#2c2c2c" stroke="#2c2c2c"/><path d="m139 543 59 29-8-53z" fill="#2a2a2a" stroke="#2a2a2a"/><path d="M316 675h19l13-28zM212 576l7 39 23-17z" fill="#2b2b2b" stroke="#2b2b2b"/><path d="m139 543 51-24-14-31z" fill="#2a2a2a" stroke="#2a2a2a"/><path d="m606 675 44-75-67 51z" fill="#292929" stroke="#292929"/><path d="m706 573 39 3-12-92z" fill="#2e2e2e" stroke="#2e2e2e"/><path d="m139 345-15 17 45 48z" fill="#2c2c2c" stroke="#2c2c2c"/><path d="m125 324-1 38 15-17z" fill="#272727" stroke="#272727"/><path d="m79 310 46 14 53-72z" fill="#303030" stroke="#303030"/><path d="m195 132 118 60-27-88z" fill="#292929" stroke="#292929"/><path d="m173 204-56-5 61 53z" fill="#262626" stroke="#262626"/><path d="M574 675h32l-23-24z" fill="#2a2a2a" stroke="#2a2a2a"/><path d="m810 349-44 20 58 68z" fill="#292929" stroke="#292929"/><path d="m611 33 5 18 35-51z" fill="#272727" stroke="#272727"/><path d="m620 65-4-14-76 42z" fill="#2f2f2f" stroke="#2f2f2f"/><path d="m492 0-25 14 3 12z" fill="#292929" stroke="#292929"/><path d="m824 437-58-68 12 67z" fill="#2d2d2d" stroke="#2d2d2d"/><path d="m307 49-46 31 39 5z" fill="#2a2a2a" stroke="#2a2a2a"/><path d="m300 85-39-5 25 24z" fill="#2d2d2d" stroke="#2d2d2d"/><path d="m492 0-22 26 27 6z" fill="#303030" stroke="#303030"/><path d="m470 26-3-12-10 38z" fill="#2f2f2f" stroke="#2f2f2f"/><path d="m368 14-61 35 49 26z" fill="#2e2e2e" stroke="#2e2e2e"/><path d="m282 643 34 32 32-28z" fill="#2f2f2f" stroke="#2f2f2f"/><path d="M273 675h43l-34-32z" fill="#282828" stroke="#282828"/><path d="m818 265-26-20-2 32z" fill="#2f2f2f" stroke="#2f2f2f"/><path d="m790 277 2-32-46 15z" fill="#2b2b2b" stroke="#2b2b2b"/><path d="m368 14-12 61 46-32z" fill="#303030" stroke="#303030"/><path d="m198 572 21 43-7-39z" fill="#2f2f2f" stroke="#2f2f2f"/><path d="m788 624-43-48-46 31z" fill="#2b2b2b" stroke="#2b2b2b"/><path d="m699 607 46-31-39-3z" fill="#2a2a2a" stroke="#2a2a2a"/><path d="m261 80-66 52 91-28z" fill="#2e2e2e" stroke="#2e2e2e"/><path d="m751 141-45 73 30 16z" fill="#292929" stroke="#292929"/><path d="m638 0-27 33 40-33z" fill="#2e2e2e" stroke="#2e2e2e"/><path d="m751 141-12-8-1 1z" fill="#2b2b2b" stroke="#2b2b2b"/><path d="m738 134 1-1-75-30z" fill="#282828" stroke="#282828"/><path d="m101 432 27 53 10-43z" fill="#2a2a2a" stroke="#2a2a2a"/><path d="m138 442-10 43 48 3z" fill="#282828" stroke="#282828"/><path d="m198 572-18 59 39-16z" fill="#262626" stroke="#262626"/><path d="m616 51 4 14 31-65z" fill="#292929" stroke="#292929"/><path d="m616 51-5-18-71 60z" fill="#303030" stroke="#303030"/><path d="m128 485 1 5 47-2z" fill="#2c2c2c" stroke="#2c2c2c"/><path d="m393 0-25 14 34 29z" fill="#2f2f2f" stroke="#2f2f2f"/><path d="m813 169-62-28-15 89z" fill="#2b2b2b" stroke="#2b2b2b"/><path d="M638 0h-54l27 33z" fill="#272727" stroke="#272727"/><path d="m173 122 8 15 14-5z" fill="#2d2d2d" stroke="#2d2d2d"/><path d="m195 132-14 5 13 58z" fill="#2d2d2d" stroke="#2d2d2d"/><path d="m168 189-51 10 56 5z" fill="#292929" stroke="#292929"/><path d="m745 576 28-26-40-66z" fill="#303030" stroke="#303030"/><path d="m787 449 37-12-46-1z" fill="#2a2a2a" stroke="#2a2a2a"/><path d="M560 0h-68l5 32z" fill="#2b2b2b" stroke="#2b2b2b"/><path d="M467 14 421 0l36 52z" fill="#303030" stroke="#303030"/><path d="M492 0h-71l46 14z" fill="#262626" stroke="#262626"/><path d="m808 333 10-68-28 12z" fill="#303030" stroke="#303030"/><path d="m813 169-41-35-21 7z" fill="#2c2c2c" stroke="#2c2c2c"/><path d="m892 325-74-60-10 68z" fill="#2e2e2e" stroke="#2e2e2e"/><path d="m663 675 19-19-32-56z" fill="#2f2f2f" stroke="#2f2f2f"/><path d="m798 553-14-7-11 4z" fill="#2e2e2e" stroke="#2e2e2e"/><path d="m855 485-31-48-37 12zM810 349l58 14-60-30zM219 615l54 60-2-49z" fill="#262626" stroke="#262626"/><path d="M421 0h-28l9 43z" fill="#2f2f2f" stroke="#2f2f2f"/><path d="m798 553-25-3 29 59z" fill="#292929" stroke="#292929"/><path d="m773 550 11-4-51-62z" fill="#2c2c2c" stroke="#2c2c2c"/><path d="m818 265-2-19-24-1z" fill="#2f2f2f" stroke="#2f2f2f"/><path d="m89 403 80 7-45-48z" fill="#2a2a2a" stroke="#2a2a2a"/><path d="m89 403 12 29 37 10z" fill="#262626" stroke="#262626"/><path d="m128 485-31 5h32z" fill="#2d2d2d" stroke="#2d2d2d"/><path d="M606 675h57l-13-75z" fill="#292929" stroke="#292929"/><path d="m96 515 43 28-10-53z" fill="#2b2b2b" stroke="#2b2b2b"/><path d="m129 490 10 53 37-55z" fill="#2d2d2d" stroke="#2d2d2d"/><path d="m219 615-31 60h85z" fill="#2c2c2c" stroke="#2c2c2c"/><path d="M611 33 560 0l-20 93z" fill="#272727" stroke="#272727"/><path d="m186 106 9 26 66-52z" fill="#2f2f2f" stroke="#2f2f2f"/><path d="m186 106-13 16 22 10z" fill="#262626" stroke="#262626"/><path d="m181 137-64 62 51-10z" fill="#2f2f2f" stroke="#2f2f2f"/><path d="m186 106 11-60-23 44z" fill="#2a2a2a" stroke="#2a2a2a"/><path d="m261 80 46-31-78-8z" fill="#2b2b2b" stroke="#2b2b2b"/><path d="m322 0-15 49 61-35z" fill="#272727" stroke="#272727"/><path d="m79 392 10 11 35-41z" fill="#2c2c2c" stroke="#2c2c2c"/><path d="m101 432-4 58 31-5zM79 392l45-30-70-13z" fill="#2b2b2b" stroke="#2b2b2b"/><path d="M611 33 584 0h-24z" fill="#292929" stroke="#292929"/><path d="m751 90-87 13 75 30z" fill="#282828" stroke="#282828"/><path d="m813 169-77 61 56 15z" fill="#272727" stroke="#272727"/><path d="m751 141 21-7-33-1zM173 122l-56 77 64-62z" fill="#282828" stroke="#282828"/><path d="m802 609-29-59-28 26z" fill="#2b2b2b" stroke="#2b2b2b"/><path d="m784 546 71-61-68-36zM729 675l-30-68-17 49z" fill="#2e2e2e" stroke="#2e2e2e"/><path d="m79 310 45 52 1-38z" fill="#2f2f2f" stroke="#2f2f2f"/><path d="m89 403-19 15 31 14z" fill="#2b2b2b" stroke="#2b2b2b"/><path d="M393 0h-71l46 14z" fill="#262626" stroke="#262626"/><path d="M117 199 79 310l99-58z" fill="#2f2f2f" stroke="#2f2f2f"/><path d="m92 500 5-10-27-11z" fill="#303030" stroke="#303030"/><path d="M322 0h-4l-11 49z" fill="#2e2e2e" stroke="#2e2e2e"/><path d="m132 609 66-37-59-29z" fill="#292929" stroke="#292929"/><path d="m132 609 48 22 18-59z" fill="#282828" stroke="#282828"/><path d="m772 134-21-44-12 43z" fill="#2f2f2f" stroke="#2f2f2f"/><path d="M318 0h-13l2 49z" fill="#292929" stroke="#292929"/><path d="m186 106-12-16-1 32z" fill="#2b2b2b" stroke="#2b2b2b"/><path d="m173 122-37-25-19 102z" fill="#303030" stroke="#303030"/><path d="m229 41-43 65 75-26z" fill="#2c2c2c" stroke="#2c2c2c"/><path d="m305 0-76 41 78 8z" fill="#2b2b2b" stroke="#2b2b2b"/><path d="m70 479 27 11 4-58zM97 490l-1 25 33-25z" fill="#292929" stroke="#292929"/><path d="m837 193-24-24-21 76z" fill="#282828" stroke="#282828"/><path d="m772 134 44-44h-65zM837 193l-45 52 24 1z" fill="#2e2e2e" stroke="#2e2e2e"/><path d="m62 423 8-5 9-26z" fill="#2f2f2f" stroke="#2f2f2f"/><path d="m79 392-9 26 19-15z" fill="#2a2a2a" stroke="#2a2a2a"/><path d="m73 521 23-6-4-15z" fill="#2d2d2d" stroke="#2d2d2d"/><path d="m92 500 4 15 1-25z" fill="#2c2c2c" stroke="#2c2c2c"/><path d="m651 0-31 65 101-34z" fill="#2f2f2f" stroke="#2f2f2f"/><path d="m96 515 8 24 35 4z" fill="#262626" stroke="#262626"/><path d="m900 408-32-45-44 74z" fill="#2c2c2c" stroke="#2c2c2c"/><path d="m824 437 44-74-58-14z" fill="#2e2e2e" stroke="#2e2e2e"/><path d="m818 265 35-26-37 7z" fill="#2d2d2d" stroke="#2d2d2d"/><path d="M721 31 620 65l44 38z" fill="#2f2f2f" stroke="#2f2f2f"/><path d="m54 349 8 74 17-31zM70 418l-8 5 39 9z" fill="#272727" stroke="#272727"/><path d="m96 515-23 6 31 18z" fill="#2b2b2b" stroke="#2b2b2b"/><path d="m892 325-39-86-35 26z" fill="#303030" stroke="#303030"/><path d="m751 90-17-36-70 49z" fill="#2b2b2b" stroke="#2b2b2b"/><path d="m809 46-75 8 17 36z" fill="#2e2e2e" stroke="#2e2e2e"/><path d="m853 239-16-46-21 53z" fill="#272727" stroke="#272727"/><path d="m813 169 3-79-44 44z" fill="#292929" stroke="#292929"/><path d="m813 169 22 18 58-22z" fill="#282828" stroke="#282828"/><path d="m837 193-2-6-22-18z" fill="#262626" stroke="#262626"/><path d="m798 553 57-68-71 61z" fill="#2e2e2e" stroke="#2e2e2e"/><path d="M663 675h66l-47-19z" fill="#303030" stroke="#303030"/><path d="m798 553 91-34-34-34z" fill="#2e2e2e" stroke="#2e2e2e"/><path d="m44 314 10 35 25-39z" fill="#272727" stroke="#272727"/><path d="m79 310-25 39 70 13z" fill="#303030" stroke="#303030"/><path d="m62 423 8 56 31-47z" fill="#2d2d2d" stroke="#2d2d2d"/><path d="m220 11-23 35 32-5z" fill="#272727" stroke="#272727"/><path d="m229 41-32 5-11 60z" fill="#272727" stroke="#272727"/><path d="m174 90-38 7 37 25z" fill="#2e2e2e" stroke="#2e2e2e"/><path d="m104 539 28 70 7-66zM180 631l8 44 31-60z" fill="#2b2b2b" stroke="#2b2b2b"/><path d="m75 584 57 25-28-70z" fill="#262626" stroke="#262626"/><path d="M729 675h9l-39-68z" fill="#272727" stroke="#272727"/><path d="m738 675 50-51-89-17z" fill="#2c2c2c" stroke="#2c2c2c"/><path d="M734 0h12l-9-1z" fill="#272727" stroke="#272727"/><path d="m734 54-13-23-57 72z" fill="#262626" stroke="#262626"/><path d="M176 675h12l-8-44zM788 624l14-15-57-33z" fill="#2b2b2b" stroke="#2b2b2b"/><path d="m175 38-39 59 38-7z" fill="#282828" stroke="#282828"/><path d="m51 242-7 72 35-4z" fill="#2b2b2b" stroke="#2b2b2b"/><path d="m0 456 73 65-3-42z" fill="#272727" stroke="#272727"/><path d="m70 479 3 42 19-21zM51 242l28 68 38-111z" fill="#2f2f2f" stroke="#2f2f2f"/><path d="M54 349 0 359l62 64z" fill="#272727" stroke="#272727"/><path d="M62 423 0 456l70 23z" fill="#262626" stroke="#262626"/><path d="m129 656 51-25-48-22z" fill="#2a2a2a" stroke="#2a2a2a"/><path d="m129 656 47 19 4-44z" fill="#2b2b2b" stroke="#2b2b2b"/><path d="m197 46-22-8-1 52z" fill="#292929" stroke="#292929"/><path d="m305 0-85 11 9 30zM900 342l-8-17-24 38z" fill="#282828" stroke="#282828"/><path d="m868 363 24-38-84 8z" fill="#282828" stroke="#282828"/><path d="m893 165-58 22 2 6z" fill="#303030" stroke="#303030"/><path d="m54 208-3 34 66-43z" fill="#2b2b2b" stroke="#2b2b2b"/><path d="m900 497-17-24-28 12z" fill="#2c2c2c" stroke="#2c2c2c"/><path d="m855 485 28-12-59-36z" fill="#303030" stroke="#303030"/><path d="m197 0-22 38 22 8z" fill="#2d2d2d" stroke="#2d2d2d"/><path d="M900 408v-46l-32 1z" fill="#282828" stroke="#282828"/><path d="M900 362v-20l-32 21z" fill="#262626" stroke="#262626"/><path d="m900 221-63-28 16 46zM55 182l-1 26 63-9z" fill="#292929" stroke="#292929"/><path d="m0 331 24 2 20-19z" fill="#2f2f2f" stroke="#2f2f2f"/><path d="m55 182 62 17-54-66z" fill="#303030" stroke="#303030"/><path d="M900 443v-35l-76 29z" fill="#2d2d2d" stroke="#2d2d2d"/><path d="m788 624 21 9-7-24z" fill="#282828" stroke="#282828"/><path d="m802 609 41-15-45-41z" fill="#2d2d2d" stroke="#2d2d2d"/><path d="m816 675-7-42-21-9z" fill="#2f2f2f" stroke="#2f2f2f"/><path d="m0 359 24-26-24-2z" fill="#272727" stroke="#272727"/><path d="m44 314-20 19 30 16zM900 497v-54l-17 30z" fill="#2e2e2e" stroke="#2e2e2e"/><path d="m883 473 17-30-76-6z" fill="#2b2b2b" stroke="#2b2b2b"/><path d="m900 245-47-6 39 86z" fill="#292929" stroke="#292929"/><path d="m879 92-63-2-3 79z" fill="#262626" stroke="#262626"/><path d="m809 633 34-39-41 15z" fill="#282828" stroke="#282828"/><path d="m63 637 66 19 3-47zM63 133l54 66 19-102z" fill="#2c2c2c" stroke="#2c2c2c"/><path d="m0 331 44-17-44-61z" fill="#2e2e2e" stroke="#2e2e2e"/><path d="m65 608 10-24-75-2z" fill="#2c2c2c" stroke="#2c2c2c"/><path d="m73 521 2 63 29-45z" fill="#292929" stroke="#292929"/><path d="M220 11 197 0v46z" fill="#272727" stroke="#272727"/><path d="m87 87-24 46 73-36z" fill="#303030" stroke="#303030"/><path d="M305 0H197l23 11z" fill="#2c2c2c" stroke="#2c2c2c"/><path d="m734 0-13 31 25-31z" fill="#292929" stroke="#292929"/><path d="m721 31 13-31h-83z" fill="#303030" stroke="#303030"/><path d="M900 342v-97l-8 80z" fill="#2f2f2f" stroke="#2f2f2f"/><path d="m892 525-3-6-91 34z" fill="#2e2e2e" stroke="#2e2e2e"/><path d="m746 0-25 31 13 23z" fill="#282828" stroke="#282828"/><path d="m734 0 3-1-86 1z" fill="#272727" stroke="#272727"/><path d="m651 0 86-1-99 1z" fill="#303030" stroke="#303030"/><path d="m638 0 99-1-153 1z" fill="#282828" stroke="#282828"/><path d="m584 0 153-1-177 1z" fill="#2b2b2b" stroke="#2b2b2b"/><path d="m560 0 177-1-245 1z" fill="#272727" stroke="#272727"/><path d="m492 0 245-1-316 1z" fill="#2f2f2f" stroke="#2f2f2f"/><path d="m421 0 316-1-344 1z" fill="#2a2a2a" stroke="#2a2a2a"/><path d="m393 0 344-1-415 1z" fill="#303030" stroke="#303030"/><path d="m322 0 415-1-419 1z" fill="#2b2b2b" stroke="#2b2b2b"/><path d="m318 0 419-1-432 1z" fill="#303030" stroke="#303030"/><path d="m305 0 432-1-540 1z" fill="#292929" stroke="#292929"/><path d="m889 519 11-22-45-12z" fill="#272727" stroke="#272727"/><path d="M53 675h79l-3-19z" fill="#2c2c2c" stroke="#2c2c2c"/><path d="m129 656 3 19h44z" fill="#292929" stroke="#292929"/><path d="M900 245v-24l-47 18z" fill="#262626" stroke="#262626"/><path d="m879 92-59-19-4 17z" fill="#303030" stroke="#303030"/><path d="m816 90 4-17-69 17z" fill="#2f2f2f" stroke="#2f2f2f"/><path d="M786 0h-40l-12 54z" fill="#2c2c2c" stroke="#2c2c2c"/><path d="m843 594 49-69-94 28z" fill="#303030" stroke="#303030"/><path d="m889 519 3 6 8-28z" fill="#2e2e2e" stroke="#2e2e2e"/><path d="m87 87 49 10-47-50z" fill="#292929" stroke="#292929"/><path d="m44 314 7-72-51 11z" fill="#2f2f2f" stroke="#2f2f2f"/><path d="m51 242-51-7v18z" fill="#282828" stroke="#282828"/><path d="M24 333 0 359l54-10zM51 242l3-34-54 27z" fill="#262626" stroke="#262626"/><path d="m89 47 47 50 39-59zM900 221v-27l-63-1z" fill="#282828" stroke="#282828"/><path d="m900 39-91 7 11 27z" fill="#2c2c2c" stroke="#2c2c2c"/><path d="m820 73-11-27-58 44z" fill="#2d2d2d" stroke="#2d2d2d"/><path d="M0 359v64h62z" fill="#2c2c2c" stroke="#2c2c2c"/><path d="m0 553 75 31-2-63z" fill="#2d2d2d" stroke="#2d2d2d"/><path d="m75 584-10 24 67 1z" fill="#262626" stroke="#262626"/><path d="M0 423v10l62-10z" fill="#292929" stroke="#292929"/><path d="m900 194-7-29-56 28z" fill="#303030" stroke="#303030"/><path d="m809 633 11 42 23-81z" fill="#2f2f2f" stroke="#2f2f2f"/><path d="m843 594 57-17-8-52z" fill="#2a2a2a" stroke="#2a2a2a"/><path d="M738 675h78l-28-51z" fill="#2c2c2c" stroke="#2c2c2c"/><path d="M0 433v23l62-33z" fill="#282828" stroke="#282828"/><path d="M816 675h4l-11-42z" fill="#303030" stroke="#303030"/><path d="M900 194v-21l-7-8z" fill="#2e2e2e" stroke="#2e2e2e"/><path d="M815 0h-29l23 46z" fill="#2c2c2c" stroke="#2c2c2c"/><path d="m54 208 1-26-55-7z" fill="#2d2d2d" stroke="#2d2d2d"/><path d="m0 235 54-27-54-33z" fill="#272727" stroke="#272727"/><path d="m0 175 55 7-55-14z" fill="#2e2e2e" stroke="#2e2e2e"/><path d="M89 47 63 92l24-5z" fill="#2b2b2b" stroke="#2b2b2b"/><path d="m87 87-24 5v41z" fill="#303030" stroke="#303030"/><path d="M809 46 786 0l-52 54z" fill="#2a2a2a" stroke="#2a2a2a"/><path d="M746 0h40l-49-1z" fill="#272727" stroke="#272727"/><path d="m879 92-66 77 80-4z" fill="#262626" stroke="#262626"/><path d="M900 583v-6l-57 17z" fill="#292929" stroke="#292929"/><path d="m892 525 8 52v-80z" fill="#2c2c2c" stroke="#2c2c2c"/><path d="m52 633 11 4 2-29z" fill="#262626" stroke="#262626"/><path d="m65 608-2 29 69-28z" fill="#272727" stroke="#272727"/><path d="M900 610v-27l-57 11z" fill="#292929" stroke="#292929"/><path d="M128 0 89 47l86-9z" fill="#262626" stroke="#262626"/><path d="M737-1 128 0h69z" fill="#2a2a2a" stroke="#2a2a2a"/><path d="M197 0h-69l47 38z" fill="#2e2e2e" stroke="#2e2e2e"/><path d="m0 585 52 48 13-25z" fill="#2d2d2d" stroke="#2d2d2d"/><path d="m63 637-10 38 76-19z" fill="#2f2f2f" stroke="#2f2f2f"/><path d="m900 103-21-11 14 73z" fill="#292929" stroke="#292929"/><path d="m55 182 8-49-63 18z" fill="#2b2b2b" stroke="#2b2b2b"/><path d="m0 168 55 14-55-31z" fill="#2b2b2b" stroke="#2b2b2b"/><path d="M900 675v-65l-57-16z" fill="#2d2d2d" stroke="#2d2d2d"/><path d="M0 456v97l73-32zM0 151l63-18-63-3z" fill="#2b2b2b" stroke="#2b2b2b"/><path d="M900 39 815 0l-6 46z" fill="#262626" stroke="#262626"/><path d="M786 0h29l-78-1z" fill="#2e2e2e" stroke="#2e2e2e"/><path d="M900 173v-70l-7 62z" fill="#2a2a2a" stroke="#2a2a2a"/><path d="m879 92 21-53-80 34z" fill="#272727" stroke="#272727"/><path d="m0 130 63 3V92z" fill="#292929" stroke="#292929"/><path d="m0 130 63-38-36-27zM0 553v29l75 2z" fill="#303030" stroke="#303030"/><path d="M0 582v3l65 23z" fill="#2c2c2c" stroke="#2c2c2c"/><path d="m52 633 1 42 10-38z" fill="#2e2e2e" stroke="#2e2e2e"/><path d="M2 675h51l-1-42zM27 65l36 27 26-45z" fill="#262626" stroke="#262626"/><path d="M45 0 27 65l62-18z" fill="#2b2b2b" stroke="#2b2b2b"/><path d="M820 675h80l-57-81z" fill="#2e2e2e" stroke="#2e2e2e"/><path d="M900 103V39l-21 53z" fill="#2b2b2b" stroke="#2b2b2b"/><path d="M0 0v64l27 1z" fill="#2e2e2e" stroke="#2e2e2e"/><path d="M27 65 0 64v66z" fill="#2f2f2f" stroke="#2f2f2f"/><path d="M737-1 45 0h83z" fill="#2b2b2b" stroke="#2b2b2b"/><path d="M128 0H45l44 47z" fill="#282828" stroke="#282828"/><path d="m0 585 2 90 50-42z" fill="#272727" stroke="#272727"/><path d="M737-1 37 0h8z" fill="#282828" stroke="#282828"/><path d="M45 0h-8L27 65z" fill="#262626" stroke="#262626"/><path d="M0 585v90h2z" fill="#2b2b2b" stroke="#2b2b2b"/><path d="M900 39V0h-85zM815 0h85L737-1z" fill="#2d2d2d" stroke="#2d2d2d"/><path d="M737-1 0 0h37z" fill="#2a2a2a" stroke="#2a2a2a"/><path d="M37 0H0l27 65z" fill="#272727" stroke="#272727"/></g></svg>
